<svg width="1064" height="673" viewBox="0 0 1064 673" fill="none" xmlns="http://www.w3.org/2000/svg">
<g id="undraw_aircraft_fbvl 1">
<g clip-path="url(#clip0)">
<path id="Vector" d="M859.64 396.66C849.87 400.26 832.71 403.22 812.85 405.6C758.85 412.08 684.85 414.38 684.85 414.38C684.85 414.38 304.44 445.93 19.33 328.59C19.33 328.59 -22.14 306.85 16.33 277.59C22.2539 273.218 28.5516 269.376 35.15 266.11L35.62 265.64C39.9958 261.596 44.7247 257.951 49.75 254.75C64.52 245.2 89.46 233.88 119.82 239.01L868.64 360.12C868.64 360.12 895.99 383.23 859.64 396.66Z" fill="#3F3D56"/>
<path id="Vector_2" d="M710.44 341.77L867.2 230.55L936.29 242.5L868.64 360.12C868.64 360.12 712.24 361.37 710.44 341.77Z" fill="#3F3D56"/>
<path id="Vector_3" d="M315.78 274.2L628.03 186.63L678.36 197.15L537.31 260.6L493.23 309.92L315.78 274.2Z" fill="#3F3D56"/>
<path id="Vector_4" d="M812.85 405.6C758.85 412.08 684.85 414.38 684.85 414.38C684.85 414.38 304.44 445.93 19.33 328.59C19.33 328.59 -22.14 306.85 16.33 277.59L16.46 278.13C16.46 278.13 77.98 319.71 371.92 354.42L812.85 405.6Z" fill="#6C63FF"/>
<path id="Vector_5" d="M762.66 403.2L902.26 460.2L937.33 456.31L853.83 393.55C853.83 393.55 752.83 372 762.66 403.2Z" fill="#3F3D56"/>
<path id="Vector_6" d="M67.08 284.22C60.42 284.33 45.16 273.16 35.67 265.64C40.0458 261.596 44.7746 257.951 49.8 254.75C57.45 260.62 71.06 270.12 78.63 269.75C89.56 269.3 77.11 284.04 67.08 284.22Z" fill="#6C63FF"/>
<path id="Vector_7" d="M701.29 600.23L611.66 604.92L359.66 435L312.88 403.45L290.16 388.12C332.79 352.12 506.72 401.77 506.72 401.77C510.05 404.58 511.11 409.25 510.96 414.41C510.67 424.07 506.13 435.41 504.38 439.49C503.96 440.49 503.7 441.02 503.7 441.02L701.29 600.23Z" fill="#3F3D56"/>
</g>
</g>
<defs>
<clipPath id="clip0">
<rect width="1063.13" height="672.74" fill="white"/>
</clipPath>
</defs>
</svg>
