<svg width="512" height="512" viewBox="0 0 512 512" fill="none" xmlns="http://www.w3.org/2000/svg">
<g id="badminton 1">
<g clip-path="url(#clip0)">
<g id="Group">
<path id="Vector" d="M137.885 507.543C128.176 500.209 126.251 486.392 133.584 476.683L183.49 404.004L200.779 314.785C203.37 302.897 215.106 295.356 226.999 297.951C238.888 300.543 246.424 312.282 243.833 324.171L225.513 418.117C224.834 421.231 223.488 424.161 221.566 426.703L168.744 503.242C161.435 512.921 147.624 514.899 137.885 507.543Z" fill="#FFB69E"/>
<path id="Vector_2" d="M286.457 511.997C286.299 511.997 286.142 511.995 285.983 511.992C273.817 511.735 264.164 501.665 264.42 489.499L266.182 399.449L246.01 331.093C242.041 319.591 248.146 307.048 259.649 303.077C271.152 299.106 283.694 305.213 287.665 316.716L309.12 388.791C309.969 391.251 310.375 393.843 310.32 396.445L308.475 490.43C308.222 502.436 298.408 511.996 286.457 511.997Z" fill="#FFB69E"/>
</g>
<g id="Group_2">
<path id="Vector_3" d="M229.44 400.114L243.835 324.172C246.427 312.283 238.89 300.544 227.001 297.952C215.107 295.356 203.373 302.897 200.781 314.786L186.244 391.379L229.44 400.114Z" fill="#3C5A73"/>
<path id="Vector_4" d="M266.183 399.448L309.12 388.791L287.665 316.716C283.694 305.214 271.153 299.106 259.649 303.077C248.147 307.048 242.041 319.59 246.01 331.093L266.183 399.448Z" fill="#3C5A73"/>
</g>
<path id="Vector_5" d="M412.082 144.083C406.838 136.614 396.533 134.809 389.063 140.053L341.017 173.781L280.619 177.204H217.831L162.536 168.378L131.796 113.137C127.358 105.163 117.298 102.296 109.321 106.733C101.347 111.171 98.479 121.233 102.917 129.208L137.561 191.466C140.026 195.897 144.389 198.949 149.396 199.749L196.361 207.245V335.051H294.006V209.278L347.457 206.545C350.563 206.386 353.562 205.354 356.107 203.567L408.05 167.103C415.521 161.858 417.325 151.553 412.082 144.083Z" fill="#FFB69E"/>
<path id="Vector_6" d="M280.619 177.204H265.255C265.61 186.987 256.526 195.295 247.038 195.295C236.869 195.295 229.333 187.019 228.831 177.204H217.832L170.204 169.602L165.01 202.24L196.363 207.245V335.051H294.008V209.278L329.618 207.457L326.182 174.623L280.619 177.204Z" fill="#82BE50"/>
<path id="Vector_7" d="M245.19 162.728C266.29 162.728 283.395 145.623 283.395 124.523C283.395 103.423 266.29 86.318 245.19 86.318C224.09 86.318 206.985 103.423 206.985 124.523C206.985 145.623 224.09 162.728 245.19 162.728Z" fill="#FFB69E"/>
<g id="shuttlecock">
<path id="Vector_8" d="M360.038 94.916C358.762 96.299 356.878 96.951 355.02 96.653C353.162 96.355 351.577 95.148 350.795 93.436L335.477 59.828C334.902 58.567 335.14 57.084 336.08 56.066C337.02 55.048 338.479 54.692 339.782 55.164L374.507 67.745C376.276 68.386 377.607 69.87 378.052 71.698C378.497 73.526 377.998 75.456 376.722 76.839L360.038 94.916Z" fill="#B4D7DC"/>
<path id="Vector_9" d="M339.322 69.532C345.109 69.532 349.8 64.8408 349.8 59.054C349.8 53.2671 345.109 48.576 339.322 48.576C333.535 48.576 328.844 53.2671 328.844 59.054C328.844 64.8408 333.535 69.532 339.322 69.532Z" fill="#87AFB9"/>
</g>
<g id="racquet">
<path id="Vector_10" d="M107.922 162.595C105.866 162.595 103.785 162.02 101.932 160.817C96.829 157.504 95.379 150.682 98.693 145.578L149.947 66.649C153.26 61.547 160.083 60.097 165.186 63.41C170.289 66.723 171.739 73.545 168.425 78.649L117.171 157.578C115.061 160.827 111.528 162.595 107.922 162.595Z" fill="#965028"/>
<path id="Vector_11" d="M208.311 62.4668C222.458 40.6797 220.985 14.6141 205.02 4.24757C189.055 -6.11891 164.645 3.13935 150.498 24.9265C136.35 46.7136 137.824 72.7793 153.788 83.1458C169.753 93.5122 194.164 84.254 208.311 62.4668Z" fill="#B4D7DC"/>
</g>
</g>
</g>
<defs>
<clipPath id="clip0">
<rect width="511.997" height="511.997" fill="white"/>
</clipPath>
</defs>
</svg>
