<svg width="1920" height="1080" viewBox="0 0 1920 1080" fill="none" xmlns="http://www.w3.org/2000/svg">
<g id="undraw_aircraft_fbvl 1">
<g clip-path="url(#clip0)">
<path id="Vector" d="M733.43 822.161L705.347 837.958L722.359 810.458C717.542 807.041 711.581 805.149 705.419 805.08H704.967C703.02 805.113 701.073 804.984 699.152 804.694L689.653 810.056L693.716 803.474C686.986 801.374 681.172 797.442 677.101 792.237L660.107 801.869L670.834 784.499C660.901 773.887 647.501 767.385 632.746 767.385C615.065 767.385 599.317 776.729 589.149 791.305C586.134 795.671 581.872 799.248 576.796 801.673C571.721 804.098 566.013 805.285 560.254 805.112H559.315C539.792 805.112 523.971 824.778 523.971 849.051C523.971 873.324 539.792 892.99 559.315 892.99C563.604 892.978 567.826 892.035 571.613 890.245C578.26 887.378 585.528 885.828 592.914 885.7C600.3 885.573 607.63 886.871 614.397 889.506C620.12 891.777 626.317 892.95 632.583 892.95C638.85 892.95 645.047 891.777 650.77 889.506C657.481 886.921 664.738 885.647 672.051 885.772C679.364 885.896 686.562 887.416 693.156 890.229C696.921 891.975 701.101 892.894 705.347 892.91C724.869 892.91 740.69 873.244 740.69 848.971C740.83 839.635 738.334 830.417 733.43 822.161Z" fill="#F2F2F2"/>
<path id="Vector_2" opacity="0.03" d="M680.605 886.456C670.406 884.741 659.865 885.758 650.318 889.378C644.6 891.653 638.406 892.83 632.141 892.83C625.876 892.83 619.682 891.653 613.964 889.378C607.199 886.735 599.868 885.433 592.48 885.56C585.093 885.688 577.824 887.243 571.18 890.116C567.384 891.902 563.158 892.843 558.863 892.861C541.526 892.861 527.096 877.321 524.098 856.837C527.567 854.597 530.511 851.778 532.766 848.537C542.934 833.976 558.682 824.633 576.363 824.633C594.044 824.633 609.629 833.784 619.779 848.232C622.808 852.587 627.052 856.172 632.099 858.638C637.146 861.105 642.825 862.371 648.584 862.311H649.036C662.834 862.279 674.789 872.104 680.605 886.456Z" fill="black"/>
<path id="Vector_3" d="M1526.26 801.291L1498.18 817.088L1515.19 789.588C1510.37 786.171 1504.41 784.279 1498.25 784.21H1497.8C1495.85 784.243 1493.9 784.114 1491.98 783.824L1482.48 789.186L1486.54 782.604C1479.81 780.505 1474 776.572 1469.93 771.367L1452.94 780.999L1463.66 763.629C1453.73 753.017 1440.33 746.515 1425.57 746.515C1407.89 746.515 1392.15 755.859 1381.98 770.435C1378.96 774.801 1374.7 778.378 1369.62 780.803C1364.55 783.228 1358.84 784.415 1353.08 784.242H1352.14C1332.62 784.242 1316.8 803.908 1316.8 828.181C1316.8 852.454 1332.62 872.12 1352.14 872.12C1356.43 872.108 1360.65 871.166 1364.44 869.375C1371.09 866.508 1378.36 864.958 1385.74 864.83C1393.13 864.703 1400.46 866.001 1407.23 868.636C1412.95 870.907 1419.15 872.08 1425.41 872.08C1431.68 872.08 1437.88 870.907 1443.6 868.636C1450.31 866.051 1457.57 864.777 1464.88 864.902C1472.19 865.027 1479.39 866.546 1485.98 869.359C1489.75 871.105 1493.93 872.024 1498.18 872.04C1517.7 872.04 1533.52 852.374 1533.52 828.101C1533.66 818.765 1531.16 809.547 1526.26 801.291V801.291Z" fill="#F2F2F2"/>
<path id="Vector_4" opacity="0.03" d="M1473.43 865.586C1463.24 863.871 1452.69 864.888 1443.15 868.508C1437.43 870.784 1431.23 871.96 1424.97 871.96C1418.7 871.96 1412.51 870.784 1406.79 868.508C1400.03 865.866 1392.7 864.563 1385.31 864.691C1377.92 864.818 1370.65 866.373 1364.01 869.246C1360.21 871.032 1355.99 871.974 1351.69 871.992C1334.35 871.992 1319.92 856.451 1316.93 835.967C1320.4 833.727 1323.34 830.908 1325.6 827.667C1335.76 813.106 1351.51 803.763 1369.19 803.763C1386.87 803.763 1402.46 812.914 1412.61 827.362C1415.64 831.729 1419.9 835.321 1424.97 837.789C1430.03 840.256 1435.73 841.515 1441.5 841.441H1441.95C1455.66 841.409 1467.62 851.234 1473.43 865.586Z" fill="black"/>
<path id="Vector_5" d="M1526.26 274.728L1498.18 290.525L1515.19 263.025C1510.37 259.608 1504.41 257.716 1498.25 257.647H1497.8C1495.85 257.68 1493.9 257.552 1491.98 257.261L1482.48 262.623L1486.54 256.041C1479.82 253.942 1474 250.009 1469.93 244.804L1452.94 254.436L1463.66 237.066C1453.73 226.454 1440.33 219.952 1425.57 219.952C1407.89 219.952 1392.15 229.296 1381.98 243.873C1378.96 248.238 1374.7 251.815 1369.62 254.24C1364.55 256.665 1358.84 257.852 1353.08 257.679H1352.14C1332.62 257.679 1316.8 277.345 1316.8 301.618C1316.8 325.891 1332.62 345.557 1352.14 345.557C1356.43 345.545 1360.65 344.603 1364.44 342.812C1371.09 339.945 1378.36 338.395 1385.74 338.267C1393.13 338.14 1400.46 339.438 1407.23 342.073C1412.94 344.356 1419.14 345.543 1425.4 345.557C1431.67 345.571 1437.87 344.411 1443.6 342.154C1450.31 339.568 1457.57 338.295 1464.88 338.419C1472.19 338.544 1479.39 340.064 1485.99 342.876C1489.75 344.622 1493.93 345.542 1498.18 345.557C1517.7 345.557 1533.52 325.891 1533.52 301.618C1533.67 292.255 1531.18 283.008 1526.26 274.728V274.728Z" fill="#F2F2F2"/>
<path id="Vector_6" opacity="0.03" d="M1473.43 339.023C1463.24 337.308 1452.69 338.325 1443.15 341.945C1437.43 344.221 1431.23 345.397 1424.97 345.397C1418.7 345.397 1412.51 344.221 1406.79 341.945C1400.03 339.303 1392.7 338 1385.31 338.128C1377.92 338.255 1370.65 339.81 1364.01 342.683C1360.21 344.469 1355.99 345.411 1351.69 345.429C1334.35 345.429 1319.92 329.888 1316.93 309.404C1320.4 307.165 1323.34 304.345 1325.6 301.104C1335.76 286.543 1351.51 277.2 1369.19 277.2C1386.87 277.2 1402.46 286.351 1412.61 300.799C1415.64 305.166 1419.9 308.758 1424.97 311.226C1430.03 313.693 1435.73 314.952 1441.5 314.878H1441.95C1455.66 314.846 1467.62 324.671 1473.43 339.023Z" fill="black"/>
<path id="Vector_7" d="M366.778 217.914L352.782 225.796L361.27 212.086C358.871 210.372 355.895 209.423 352.818 209.389H352.601C351.627 209.398 350.655 209.334 349.693 209.196L344.962 211.861L346.984 208.651C343.627 207.605 340.726 205.644 338.695 203.048L330.225 207.864L335.643 199.211C333.39 196.621 330.515 194.51 327.229 193.033C323.942 191.555 320.326 190.748 316.644 190.67C307.831 190.67 299.975 195.326 294.972 202.598C293.466 204.781 291.335 206.57 288.796 207.78C286.258 208.99 283.403 209.578 280.524 209.485H280.055C270.32 209.485 262.428 219.31 262.428 231.415C262.428 243.519 270.32 253.328 280.055 253.328C282.195 253.322 284.303 252.854 286.195 251.964C289.51 250.529 293.136 249.753 296.823 249.689C300.509 249.626 304.166 250.276 307.542 251.594C310.384 252.718 313.461 253.298 316.572 253.298C319.683 253.298 322.759 252.718 325.602 251.594C328.95 250.303 332.572 249.668 336.221 249.732C339.87 249.795 343.461 250.557 346.75 251.964C348.626 252.827 350.705 253.283 352.818 253.296C362.552 253.296 370.444 243.487 370.444 231.383C370.513 226.691 369.252 222.059 366.778 217.914Z" fill="#F2F2F2"/>
<path id="Vector_8" opacity="0.03" d="M340.429 249.989C335.339 249.123 330.074 249.631 325.313 251.45C322.468 252.567 319.393 253.146 316.283 253.152C313.137 253.151 310.028 252.554 307.162 251.402C303.785 250.089 300.127 249.443 296.441 249.51C292.756 249.576 289.13 250.353 285.816 251.787C283.93 252.677 281.828 253.145 279.693 253.152C271.043 253.152 263.837 245.398 262.338 235.187C264.063 234.062 265.534 232.657 266.672 231.046C271.729 223.773 279.585 219.118 288.344 219.118C297.103 219.118 304.923 223.725 310.016 230.901C311.534 233.083 313.663 234.877 316.196 236.107C318.729 237.337 321.578 237.96 324.464 237.917H324.699C331.507 237.917 337.521 242.829 340.429 249.989Z" fill="black"/>
<path id="Vector_9" d="M1612.91 1002.94L1598.91 1010.82L1607.4 997.114C1605 995.401 1602.03 994.451 1598.95 994.417H1598.73C1597.76 994.426 1596.79 994.362 1595.83 994.225L1591.09 996.89L1593.12 993.679C1589.76 992.633 1586.86 990.673 1584.83 988.076L1576.36 992.892L1581.77 984.239C1579.52 981.649 1576.65 979.539 1573.36 978.061C1570.07 976.584 1566.46 975.777 1562.78 975.699C1553.96 975.699 1546.11 980.354 1541.1 987.627C1539.6 989.81 1537.47 991.598 1534.93 992.808C1532.39 994.018 1529.53 994.607 1526.66 994.514H1526.19C1516.45 994.514 1508.56 1004.34 1508.56 1016.44C1508.56 1028.55 1516.45 1038.36 1526.19 1038.36C1528.33 1038.35 1530.43 1037.88 1532.33 1036.99C1535.64 1035.56 1539.27 1034.78 1542.95 1034.72C1546.64 1034.65 1550.3 1035.3 1553.67 1036.62C1556.52 1037.75 1559.59 1038.33 1562.7 1038.33C1565.81 1038.33 1568.89 1037.75 1571.73 1036.62C1575.08 1035.33 1578.7 1034.7 1582.35 1034.76C1586 1034.82 1589.59 1035.58 1592.88 1036.99C1594.76 1037.86 1596.84 1038.31 1598.95 1038.32C1608.68 1038.32 1616.58 1028.52 1616.58 1016.41C1616.64 1011.72 1615.38 1007.09 1612.91 1002.94V1002.94Z" fill="#F2F2F2"/>
<path id="Vector_10" opacity="0.03" d="M1586.56 1035.02C1581.47 1034.15 1576.21 1034.66 1571.44 1036.48C1568.6 1037.6 1565.52 1038.17 1562.41 1038.18C1559.27 1038.18 1556.16 1037.58 1553.29 1036.43C1549.92 1035.12 1546.26 1034.47 1542.57 1034.54C1538.89 1034.6 1535.26 1035.38 1531.95 1036.82C1530.06 1037.71 1527.96 1038.17 1525.82 1038.18C1517.17 1038.18 1509.97 1030.43 1508.47 1020.22C1510.2 1019.09 1511.67 1017.69 1512.8 1016.07C1517.86 1008.8 1525.72 1004.15 1534.48 1004.15C1543.23 1004.15 1551.05 1008.75 1556.15 1015.93C1557.67 1018.11 1559.8 1019.91 1562.33 1021.14C1564.86 1022.37 1567.71 1022.99 1570.6 1022.95H1570.83C1577.64 1022.95 1583.65 1027.86 1586.56 1035.02Z" fill="black"/>
<path id="Vector_11" d="M312.598 1044.68L298.602 1052.56L307.09 1038.85C304.691 1037.14 301.716 1036.19 298.638 1036.16H298.421C297.448 1036.17 296.475 1036.1 295.514 1035.96L290.782 1038.63L292.805 1035.42C289.447 1034.37 286.546 1032.41 284.515 1029.82L276.045 1034.63L281.463 1025.98C279.21 1023.39 276.336 1021.28 273.049 1019.8C269.762 1018.32 266.146 1017.52 262.464 1017.44C253.651 1017.44 245.795 1022.09 240.792 1029.37C239.287 1031.55 237.155 1033.34 234.617 1034.55C232.078 1035.76 229.223 1036.35 226.344 1036.25H225.875C216.141 1036.25 208.248 1046.08 208.248 1058.18C208.248 1070.29 216.141 1080.1 225.875 1080.1C228.016 1080.09 230.123 1079.62 232.015 1078.73C235.33 1077.3 238.957 1076.52 242.643 1076.46C246.329 1076.39 249.987 1077.04 253.362 1078.36C256.205 1079.49 259.281 1080.07 262.392 1080.07C265.503 1080.07 268.579 1079.49 271.422 1078.36C274.77 1077.07 278.392 1076.44 282.041 1076.5C285.69 1076.56 289.281 1077.32 292.57 1078.73C294.446 1079.59 296.526 1080.05 298.638 1080.06C308.372 1080.06 316.265 1070.26 316.265 1058.15C316.333 1053.46 315.072 1048.83 312.598 1044.68V1044.68Z" fill="#F2F2F2"/>
<path id="Vector_12" opacity="0.03" d="M286.249 1076.76C281.159 1075.89 275.894 1076.4 271.133 1078.22C268.288 1079.33 265.213 1079.91 262.103 1079.92C258.958 1079.92 255.849 1079.32 252.983 1078.17C249.605 1076.86 245.947 1076.21 242.262 1076.28C238.576 1076.34 234.951 1077.12 231.636 1078.56C229.75 1079.45 227.649 1079.91 225.514 1079.92C216.863 1079.92 209.657 1072.17 208.158 1061.96C209.884 1060.83 211.354 1059.42 212.493 1057.81C217.549 1050.54 225.405 1045.89 234.164 1045.89C242.923 1045.89 250.743 1050.49 255.836 1057.67C257.354 1059.85 259.484 1061.65 262.017 1062.88C264.55 1064.11 267.399 1064.73 270.284 1064.68H270.519C277.328 1064.68 283.341 1069.6 286.249 1076.76Z" fill="black"/>
<path id="Vector_13" d="M959.178 54.7914L931.095 70.5884L948.108 43.0883C943.29 39.6717 937.33 37.7793 931.167 37.7103H930.716C928.768 37.7441 926.821 37.6151 924.901 37.325L915.401 42.6869L919.465 36.1049C912.735 34.0051 906.921 30.0729 902.849 24.8673L885.855 34.4995L896.583 17.1294C886.65 6.51783 873.249 0.0160522 858.494 0.0160522C840.814 0.0160522 825.066 9.35933 814.898 23.9361C811.883 28.3013 807.62 31.8785 802.545 34.3036C797.469 36.7287 791.761 37.9152 786.002 37.7424H785.063C765.54 37.7424 749.72 57.4082 749.72 81.6815C749.72 105.955 765.54 125.621 785.063 125.621C789.353 125.608 793.574 124.666 797.362 122.875C804.009 120.009 811.276 118.459 818.662 118.331C826.049 118.204 833.379 119.502 840.146 122.137C845.862 124.42 852.055 125.607 858.322 125.621C864.589 125.634 870.789 124.475 876.518 122.217C883.229 119.632 890.487 118.358 897.8 118.483C905.113 118.607 912.31 120.127 918.905 122.94C922.669 124.686 926.849 125.605 931.095 125.621C950.618 125.621 966.438 105.955 966.438 81.6815C966.594 72.3187 964.097 63.0716 959.178 54.7914V54.7914Z" fill="#F2F2F2"/>
<path id="Vector_14" opacity="0.03" d="M906.353 119.087C896.155 117.371 885.614 118.388 876.067 122.009C870.349 124.284 864.154 125.461 857.89 125.461C851.625 125.461 845.43 124.284 839.712 122.009C832.947 119.366 825.617 118.064 818.229 118.191C810.841 118.319 803.573 119.873 796.928 122.747C793.132 124.532 788.906 125.474 784.612 125.492C767.274 125.492 752.844 109.952 749.846 89.4676C753.315 87.2282 756.26 84.409 758.515 81.1678C768.683 66.607 784.431 57.2637 802.112 57.2637C819.792 57.2637 835.378 66.4144 845.527 80.8627C848.564 85.2293 852.823 88.8216 857.887 91.2892C862.951 93.7567 868.649 95.0152 874.423 94.9419H874.875C888.582 94.9098 900.538 104.735 906.353 119.087Z" fill="black"/>
<path id="Vector_15" d="M959.178 54.7915L931.095 70.5884L948.108 43.0883C943.29 39.6717 937.33 37.7793 931.167 37.7103H930.716C928.768 37.7441 926.821 37.6152 924.901 37.325L915.401 42.687L919.465 36.1049C912.735 34.0052 906.921 30.0729 902.849 24.8673L885.855 34.4995L896.583 17.1294C886.65 6.51786 873.249 0.0160828 858.494 0.0160828C840.814 0.0160828 825.066 9.35936 814.898 23.9362C811.883 28.3013 807.62 31.8785 802.545 34.3036C797.469 36.7288 791.761 37.9153 786.002 37.7424H785.063C765.54 37.7424 749.72 57.4082 749.72 81.6815C749.72 105.955 765.54 125.621 785.063 125.621C789.353 125.609 793.574 124.666 797.362 122.875C804.009 120.009 811.276 118.459 818.662 118.331C826.049 118.204 833.379 119.502 840.146 122.137C845.862 124.42 852.055 125.607 858.322 125.621C864.589 125.634 870.789 124.475 876.518 122.217C883.229 119.632 890.487 118.358 897.8 118.483C905.113 118.607 912.31 120.127 918.905 122.94C922.669 124.686 926.849 125.605 931.095 125.621C950.618 125.621 966.438 105.955 966.438 81.6815C966.594 72.3187 964.097 63.0716 959.178 54.7915V54.7915Z" fill="#F2F2F2"/>
<path id="Vector_16" opacity="0.03" d="M906.353 119.087C896.155 117.372 885.614 118.388 876.067 122.009C870.349 124.284 864.154 125.461 857.89 125.461C851.625 125.461 845.43 124.284 839.712 122.009C832.947 119.366 825.617 118.064 818.229 118.191C810.841 118.319 803.573 119.873 796.928 122.747C793.132 124.532 788.906 125.474 784.612 125.492C767.274 125.492 752.844 109.952 749.846 89.4676C753.315 87.2282 756.26 84.409 758.515 81.1678C768.683 66.607 784.431 57.2638 802.112 57.2638C819.792 57.2638 835.378 66.4144 845.527 80.8628C848.564 85.2294 852.823 88.8217 857.887 91.2892C862.951 93.7567 868.649 95.0152 874.423 94.9419H874.875C888.582 94.9098 900.538 104.735 906.353 119.087Z" fill="black"/>
<path id="Vector_17" d="M1916.32 330.29L1902.32 338.172L1910.81 324.462C1908.41 322.749 1905.43 321.799 1902.36 321.765H1902.14C1901.17 321.774 1900.19 321.71 1899.23 321.573L1894.5 324.238L1896.52 321.027C1893.16 319.981 1890.26 318.021 1888.23 315.424L1879.76 320.24L1885.18 311.587C1882.93 308.997 1880.05 306.887 1876.77 305.409C1873.48 303.932 1869.86 303.124 1866.18 303.047C1857.37 303.047 1849.51 307.702 1844.51 314.975C1843 317.158 1840.87 318.946 1838.33 320.156C1835.8 321.366 1832.94 321.955 1830.06 321.862H1829.59C1819.86 321.862 1811.97 331.687 1811.97 343.791C1811.97 355.896 1819.86 365.704 1829.59 365.704C1831.73 365.698 1833.84 365.23 1835.73 364.34C1839.05 362.905 1842.67 362.129 1846.36 362.066C1850.05 362.002 1853.7 362.652 1857.08 363.971C1859.92 365.094 1863 365.674 1866.11 365.674C1869.22 365.674 1872.3 365.094 1875.14 363.971C1878.49 362.679 1882.11 362.044 1885.76 362.108C1889.41 362.172 1893 362.933 1896.29 364.34C1898.16 365.203 1900.24 365.66 1902.36 365.672C1912.09 365.672 1919.98 355.864 1919.98 343.759C1920.05 339.067 1918.79 334.435 1916.32 330.29V330.29Z" fill="#F2F2F2"/>
<path id="Vector_18" opacity="0.03" d="M1889.97 362.365C1884.88 361.499 1879.61 362.008 1874.85 363.826C1872.01 364.943 1868.93 365.522 1865.82 365.528C1862.71 365.516 1859.63 364.919 1856.79 363.778C1853.41 362.465 1849.76 361.819 1846.07 361.886C1842.38 361.952 1838.76 362.729 1835.44 364.163C1833.56 365.053 1831.46 365.522 1829.32 365.528C1820.67 365.528 1813.46 357.774 1811.97 347.564C1813.69 346.438 1815.16 345.033 1816.3 343.422C1821.36 336.149 1829.21 331.494 1837.97 331.494C1846.73 331.494 1854.55 336.101 1859.64 343.277C1861.15 345.448 1863.27 347.234 1865.78 348.463C1868.3 349.693 1871.13 350.323 1874 350.293H1874.24C1881.04 350.293 1887.06 355.205 1889.97 362.365Z" fill="black"/>
</g>
</g>
<defs>
<clipPath id="clip0">
<rect width="1920" height="1080" fill="white"/>
</clipPath>
</defs>
</svg>
