<svg width="1308" height="952" viewBox="0 0 1308 952" fill="none" xmlns="http://www.w3.org/2000/svg">
<g id="undraw_aircraft_fbvl 1">
<g clip-path="url(#clip0)">
<path id="Vector" d="M501.971 750.173L482.534 762.624L494.309 740.949C490.975 738.256 486.849 736.765 482.584 736.71H482.272C480.924 736.737 479.576 736.635 478.247 736.406L471.672 740.633L474.484 735.445C469.827 733.79 465.803 730.69 462.985 726.587L451.223 734.179L458.647 720.488C451.773 712.125 442.498 707 432.286 707C420.048 707 409.149 714.364 402.111 725.853C400.024 729.294 397.074 732.114 393.561 734.025C390.048 735.937 386.098 736.872 382.112 736.735H381.462C367.95 736.735 357 752.236 357 771.368C357 790.5 367.95 806 381.462 806C384.431 805.99 387.353 805.248 389.974 803.836C394.575 801.577 399.605 800.355 404.717 800.254C409.829 800.154 414.902 801.177 419.586 803.254C423.547 805.044 427.836 805.968 432.173 805.968C436.51 805.968 440.799 805.044 444.76 803.254C449.405 801.216 454.428 800.213 459.49 800.311C464.551 800.409 469.533 801.607 474.097 803.824C476.702 805.2 479.595 805.925 482.534 805.937C496.046 805.937 506.996 790.436 506.996 771.304C507.093 763.946 505.366 756.681 501.971 750.173Z" fill="#F2F2F2"/>
<path id="Vector_2" opacity="0.03" d="M465 800.93C457.963 799.573 450.688 800.378 444.1 803.243C440.155 805.044 435.88 805.975 431.557 805.975C427.234 805.975 422.959 805.044 419.013 803.243C414.345 801.152 409.287 800.121 404.188 800.222C399.09 800.323 394.075 801.553 389.49 803.827C386.87 805.24 383.954 805.986 380.99 806C369.026 806 359.069 793.701 357 777.488C359.394 775.716 361.426 773.484 362.982 770.919C369.998 759.395 380.866 752 393.066 752C405.267 752 416.022 759.242 423.026 770.678C425.116 774.124 428.045 776.962 431.528 778.914C435.011 780.866 438.93 781.868 442.904 781.821H443.216C452.737 781.795 460.987 789.571 465 800.93Z" fill="black"/>
<path id="Vector_3" d="M1051.97 733.737L1032.53 746.062L1044.31 724.606C1040.97 721.94 1036.85 720.464 1032.58 720.41H1032.27C1030.92 720.436 1029.58 720.336 1028.25 720.109L1021.67 724.293L1024.48 719.157C1019.83 717.519 1015.8 714.451 1012.98 710.39L1001.22 717.905L1008.65 704.352C1001.77 696.073 992.498 691 982.286 691C970.048 691 959.149 698.29 952.111 709.663C950.024 713.069 947.074 715.86 943.561 717.752C940.048 719.644 936.098 720.57 932.112 720.435H931.462C917.95 720.435 907 735.779 907 754.718C907 773.656 917.95 789 931.462 789C934.431 788.991 937.353 788.255 939.974 786.858C944.575 784.622 949.605 783.412 954.717 783.313C959.829 783.213 964.902 784.226 969.586 786.282C973.547 788.053 977.836 788.969 982.173 788.969C986.511 788.969 990.799 788.053 994.76 786.282C999.405 784.265 1004.43 783.271 1009.49 783.368C1014.55 783.465 1019.53 784.651 1024.1 786.846C1026.7 788.208 1029.6 788.925 1032.53 788.937C1046.05 788.937 1057 773.594 1057 754.655C1057.09 747.371 1055.37 740.179 1051.97 733.737V733.737Z" fill="#F2F2F2"/>
<path id="Vector_4" opacity="0.03" d="M1016 784.024C1008.9 782.692 1001.56 783.482 994.907 786.294C990.925 788.062 986.611 788.976 982.247 788.976C977.884 788.976 973.57 788.062 969.588 786.294C964.876 784.241 959.771 783.23 954.625 783.329C949.48 783.428 944.418 784.635 939.791 786.868C937.147 788.255 934.204 788.986 931.212 789C919.138 789 909.088 776.928 907 761.016C909.416 759.276 911.467 757.086 913.037 754.569C920.119 743.258 931.087 736 943.4 736C955.714 736 966.569 743.108 973.638 754.332C975.753 757.724 978.718 760.514 982.246 762.431C985.773 764.348 989.741 765.325 993.762 765.269H994.077C1003.62 765.244 1011.95 772.876 1016 784.024Z" fill="black"/>
<path id="Vector_5" d="M1051.97 321.173L1032.53 333.624L1044.31 311.949C1040.97 309.256 1036.85 307.765 1032.58 307.71H1032.27C1030.92 307.737 1029.58 307.635 1028.25 307.406L1021.67 311.633L1024.48 306.445C1019.83 304.79 1015.8 301.69 1012.98 297.587L1001.22 305.179L1008.65 291.488C1001.77 283.125 992.497 278 982.285 278C970.048 278 959.148 285.364 952.111 296.854C950.024 300.294 947.074 303.114 943.561 305.025C940.048 306.936 936.098 307.872 932.112 307.735H931.462C917.95 307.735 907 323.236 907 342.368C907 361.5 917.95 377 931.462 377C934.431 376.99 937.353 376.248 939.974 374.836C944.574 372.577 949.604 371.355 954.717 371.254C959.829 371.154 964.902 372.177 969.586 374.254C973.542 376.053 977.829 376.989 982.166 377C986.503 377.011 990.794 376.097 994.76 374.317C999.405 372.28 1004.43 371.276 1009.49 371.374C1014.55 371.472 1019.53 372.67 1024.1 374.887C1026.7 376.263 1029.59 376.988 1032.53 377C1046.05 377 1057 361.5 1057 342.368C1057.1 334.988 1055.37 327.7 1051.97 321.173V321.173Z" fill="#F2F2F2"/>
<path id="Vector_6" opacity="0.03" d="M1016 372.024C1008.9 370.692 1001.56 371.482 994.907 374.294C990.925 376.062 986.611 376.976 982.247 376.976C977.884 376.976 973.57 376.062 969.588 374.294C964.876 372.241 959.771 371.23 954.625 371.329C949.48 371.428 944.418 372.635 939.791 374.868C937.147 376.254 934.204 376.986 931.212 377C919.138 377 909.088 364.928 907 349.016C909.416 347.276 911.467 345.086 913.037 342.569C920.119 331.258 931.087 324 943.4 324C955.714 324 966.569 331.108 973.638 342.332C975.753 345.724 978.718 348.514 982.246 350.431C985.773 352.348 989.741 353.325 993.762 353.268H994.077C1003.62 353.244 1011.95 360.876 1016 372.024Z" fill="black"/>
<path id="Vector_7" d="M247.453 277.305L237.735 283.469L243.628 272.748C241.963 271.407 239.896 270.665 237.76 270.638H237.609C236.933 270.645 236.258 270.595 235.59 270.488L232.305 272.572L233.709 270.061C231.378 269.243 229.364 267.71 227.954 265.679L222.073 269.446L225.835 262.679C224.271 260.653 222.275 259.003 219.993 257.847C217.711 256.692 215.2 256.061 212.643 256C206.524 256 201.069 259.641 197.596 265.328C196.551 267.035 195.071 268.434 193.308 269.38C191.545 270.326 189.563 270.787 187.564 270.714H187.238C180.48 270.714 175 278.397 175 287.863C175 297.329 180.48 305 187.238 305C188.725 304.995 190.188 304.629 191.502 303.933C193.804 302.811 196.321 302.204 198.881 302.154C201.44 302.104 203.98 302.613 206.323 303.644C208.297 304.523 210.433 304.976 212.593 304.976C214.753 304.976 216.889 304.523 218.863 303.644C221.188 302.634 223.702 302.138 226.236 302.187C228.77 302.237 231.263 302.832 233.546 303.933C234.849 304.608 236.293 304.965 237.76 304.975C244.518 304.975 249.998 297.304 249.998 287.838C250.046 284.169 249.17 280.547 247.453 277.305Z" fill="#F2F2F2"/>
<path id="Vector_8" opacity="0.03" d="M229 301.584C225.48 300.922 221.84 301.311 218.547 302.7C216.58 303.553 214.454 303.996 212.303 304C210.128 303.999 207.978 303.544 205.996 302.663C203.661 301.66 201.131 301.167 198.583 301.218C196.034 301.268 193.527 301.862 191.235 302.958C189.931 303.637 188.478 303.995 187.001 304C181.019 304 176.037 298.076 175 290.276C176.193 289.417 177.21 288.343 177.997 287.112C181.494 281.557 186.926 278 192.983 278C199.04 278 204.448 281.52 207.969 287.002C209.019 288.669 210.492 290.039 212.243 290.979C213.995 291.919 215.965 292.395 217.96 292.361H218.123C222.831 292.361 226.989 296.114 229 301.584Z" fill="black"/>
<path id="Vector_9" d="M1112.49 891.74L1102.9 898.03L1108.71 887.089C1107.07 885.722 1105.03 884.964 1102.92 884.937H1102.77C1102.11 884.944 1101.44 884.893 1100.78 884.783L1097.54 886.91L1098.93 884.348C1096.63 883.513 1094.64 881.949 1093.25 879.877L1087.45 883.72L1091.16 876.815C1089.61 874.748 1087.64 873.064 1085.39 871.885C1083.14 870.706 1080.66 870.062 1078.14 870C1072.1 870 1066.72 873.715 1063.29 879.518C1062.26 881.26 1060.8 882.687 1059.06 883.653C1057.32 884.619 1055.37 885.088 1053.4 885.014H1053.08C1046.41 885.014 1041 892.854 1041 902.513C1041 912.173 1046.41 920 1053.08 920C1054.54 919.995 1055.99 919.621 1057.28 918.911C1059.55 917.766 1062.04 917.147 1064.56 917.096C1067.09 917.045 1069.59 917.564 1071.91 918.616C1073.85 919.513 1075.96 919.976 1078.09 919.976C1080.22 919.976 1082.33 919.513 1084.28 918.616C1086.57 917.586 1089.05 917.079 1091.55 917.13C1094.05 917.181 1096.51 917.788 1098.77 918.911C1100.05 919.6 1101.48 919.964 1102.92 919.974C1109.59 919.974 1115 912.147 1115 902.488C1115.05 898.744 1114.18 895.047 1112.49 891.74V891.74Z" fill="#F2F2F2"/>
<path id="Vector_10" opacity="0.03" d="M1095 917.491C1091.48 916.804 1087.84 917.207 1084.55 918.65C1082.58 919.536 1080.45 919.996 1078.3 920C1076.13 919.999 1073.98 919.526 1072 918.612C1069.66 917.57 1067.13 917.058 1064.58 917.111C1062.03 917.163 1059.53 917.78 1057.23 918.917C1055.93 919.623 1054.48 919.995 1053 920C1047.02 920 1042.04 913.849 1041 905.749C1042.19 904.856 1043.21 903.741 1044 902.463C1047.49 896.693 1052.93 893 1058.98 893C1065.04 893 1070.45 896.655 1073.97 902.348C1075.02 904.079 1076.49 905.502 1078.24 906.478C1079.99 907.454 1081.96 907.949 1083.96 907.914H1084.12C1088.83 907.914 1092.99 911.811 1095 917.491Z" fill="black"/>
<path id="Vector_11" d="M209.453 924.305L199.735 930.469L205.628 919.748C203.963 918.407 201.896 917.665 199.76 917.638H199.609C198.933 917.645 198.258 917.595 197.59 917.488L194.305 919.572L195.709 917.061C193.378 916.243 191.364 914.71 189.954 912.679L184.073 916.446L187.835 909.679C186.271 907.653 184.275 906.003 181.993 904.847C179.711 903.692 177.2 903.061 174.643 903C168.524 903 163.069 906.641 159.596 912.328C158.551 914.035 157.071 915.434 155.308 916.38C153.545 917.326 151.563 917.787 149.564 917.714H149.238C142.48 917.714 137 925.397 137 934.863C137 944.329 142.48 952 149.238 952C150.725 951.995 152.188 951.629 153.502 950.933C155.804 949.811 158.321 949.204 160.881 949.154C163.44 949.104 165.98 949.613 168.323 950.644C170.297 951.522 172.433 951.976 174.593 951.976C176.753 951.976 178.889 951.522 180.863 950.644C183.188 949.634 185.702 949.138 188.236 949.187C190.77 949.237 193.263 949.833 195.546 950.933C196.849 951.608 198.293 951.965 199.76 951.975C206.518 951.975 211.998 944.304 211.998 934.838C212.046 931.169 211.17 927.547 209.453 924.305V924.305Z" fill="#F2F2F2"/>
<path id="Vector_12" opacity="0.03" d="M192 949.491C188.415 948.804 184.707 949.207 181.354 950.65C179.35 951.536 177.184 951.996 174.994 952C172.778 951.999 170.589 951.526 168.57 950.612C166.192 949.57 163.615 949.058 161.019 949.111C158.424 949.163 155.87 949.78 153.536 950.917C152.207 951.623 150.727 951.995 149.224 952C143.131 952 138.056 945.849 137 937.749C138.215 936.856 139.251 935.741 140.053 934.463C143.614 928.693 149.147 925 155.316 925C161.485 925 166.993 928.655 170.58 934.348C171.649 936.079 173.149 937.502 174.933 938.478C176.717 939.454 178.723 939.949 180.756 939.914H180.921C185.716 939.914 189.952 943.811 192 949.491Z" fill="black"/>
<path id="Vector_13" d="M632.205 221.248L613.675 232.567L624.9 212.863C621.722 210.415 617.789 209.059 613.723 209.009H613.425C612.14 209.033 610.855 208.941 609.588 208.733L603.32 212.575L606.001 207.859C601.561 206.354 597.725 203.537 595.038 199.807L583.825 206.709L590.903 194.262C584.349 186.659 575.507 182 565.772 182C554.106 182 543.715 188.695 537.006 199.14C535.016 202.267 532.204 204.831 528.855 206.568C525.506 208.306 521.74 209.156 517.94 209.032H517.32C504.439 209.032 494 223.123 494 240.516C494 257.909 504.439 272 517.32 272C520.151 271.991 522.936 271.316 525.435 270.033C529.821 267.979 534.616 266.868 539.49 266.777C544.364 266.685 549.2 267.616 553.665 269.504C557.437 271.139 561.523 271.99 565.658 272C569.793 272.01 573.884 271.179 577.664 269.561C582.092 267.709 586.881 266.796 591.706 266.885C596.532 266.975 601.281 268.064 605.632 270.079C608.116 271.33 610.874 271.989 613.675 272C626.557 272 636.995 257.909 636.995 240.516C637.098 233.807 635.451 227.181 632.205 221.248V221.248Z" fill="#F2F2F2"/>
<path id="Vector_14" opacity="0.03" d="M597 266.494C590.288 265.287 583.351 266.002 577.068 268.549C573.305 270.15 569.228 270.978 565.105 270.978C560.982 270.978 556.906 270.15 553.142 268.549C548.69 266.69 543.866 265.774 539.004 265.864C534.142 265.953 529.358 267.047 524.986 269.069C522.487 270.325 519.706 270.987 516.88 271C505.47 271 495.973 260.067 494 245.656C496.283 244.081 498.221 242.097 499.705 239.817C506.397 229.573 516.761 223 528.397 223C540.033 223 550.29 229.438 556.97 239.602C558.968 242.674 561.771 245.202 565.104 246.938C568.436 248.674 572.186 249.559 575.986 249.507H576.284C585.305 249.485 593.173 256.397 597 266.494Z" fill="black"/>
<path id="Vector_15" d="M632.205 221.248L613.675 232.567L624.9 212.863C621.722 210.415 617.789 209.059 613.723 209.009H613.425C612.14 209.033 610.855 208.941 609.588 208.733L603.32 212.575L606.001 207.859C601.561 206.354 597.725 203.537 595.038 199.807L583.825 206.709L590.903 194.262C584.349 186.659 575.507 182 565.772 182C554.106 182 543.715 188.695 537.006 199.14C535.016 202.267 532.204 204.831 528.855 206.568C525.506 208.306 521.74 209.156 517.94 209.032H517.32C504.439 209.032 494 223.123 494 240.516C494 257.909 504.439 272 517.32 272C520.151 271.991 522.936 271.316 525.435 270.033C529.821 267.979 534.616 266.868 539.49 266.777C544.364 266.685 549.2 267.616 553.665 269.504C557.437 271.139 561.523 271.99 565.658 272C569.793 272.01 573.884 271.179 577.664 269.561C582.092 267.709 586.881 266.796 591.706 266.885C596.532 266.975 601.281 268.064 605.632 270.079C608.116 271.33 610.874 271.989 613.675 272C626.557 272 636.995 257.909 636.995 240.516C637.098 233.807 635.451 227.181 632.205 221.248V221.248Z" fill="#F2F2F2"/>
<path id="Vector_16" opacity="0.03" d="M597 266.494C590.288 265.287 583.351 266.002 577.068 268.549C573.305 270.15 569.228 270.978 565.105 270.978C560.982 270.978 556.906 270.15 553.142 268.549C548.69 266.69 543.866 265.774 539.004 265.864C534.142 265.953 529.358 267.047 524.986 269.069C522.487 270.325 519.706 270.987 516.88 271C505.47 271 495.973 260.067 494 245.656C496.283 244.081 498.221 242.097 499.705 239.817C506.397 229.573 516.761 223 528.397 223C540.033 223 550.29 229.438 556.97 239.602C558.968 242.674 561.771 245.202 565.104 246.938C568.436 248.674 572.186 249.559 575.986 249.507H576.284C585.305 249.485 593.173 256.397 597 266.494Z" fill="black"/>
<path id="Vector_17" d="M1323.45 364.87L1313.73 370.909L1319.63 360.406C1317.96 359.093 1315.9 358.365 1313.76 358.34H1313.61C1312.93 358.347 1312.26 358.297 1311.59 358.192L1308.3 360.234L1309.71 357.774C1307.38 356.973 1305.36 355.471 1303.95 353.482L1298.07 357.171L1301.83 350.543C1300.27 348.559 1298.27 346.942 1295.99 345.81C1293.71 344.678 1291.2 344.06 1288.64 344C1282.52 344 1277.07 347.566 1273.6 353.138C1272.55 354.81 1271.07 356.18 1269.31 357.107C1267.55 358.034 1265.56 358.485 1263.56 358.414H1263.24C1256.48 358.414 1251 365.94 1251 375.213C1251 384.486 1256.48 392 1263.24 392C1264.72 391.995 1266.19 391.637 1267.5 390.955C1269.8 389.856 1272.32 389.261 1274.88 389.212C1277.44 389.164 1279.98 389.662 1282.32 390.672C1284.3 391.532 1286.43 391.977 1288.59 391.977C1290.75 391.977 1292.89 391.532 1294.86 390.672C1297.19 389.683 1299.7 389.196 1302.24 389.245C1304.77 389.294 1307.26 389.877 1309.55 390.955C1310.85 391.616 1312.29 391.966 1313.76 391.975C1320.52 391.975 1326 384.461 1326 375.188C1326.05 371.594 1325.17 368.046 1323.45 364.87V364.87Z" fill="#F2F2F2"/>
<path id="Vector_18" opacity="0.03" d="M1305 389.584C1301.48 388.922 1297.83 389.311 1294.54 390.7C1292.57 391.553 1290.44 391.996 1288.28 392C1286.13 391.991 1284 391.535 1282.03 390.663C1279.69 389.66 1277.16 389.167 1274.61 389.218C1272.06 389.268 1269.55 389.862 1267.25 390.958C1265.95 391.637 1264.49 391.995 1263.02 392C1257.03 392 1252.04 386.076 1251 378.276C1252.19 377.417 1253.21 376.343 1254 375.112C1257.5 369.557 1262.94 366 1269 366C1275.07 366 1280.48 369.52 1284.01 375.002C1285.05 376.66 1286.52 378.025 1288.26 378.964C1290 379.903 1291.96 380.384 1293.95 380.361H1294.11C1298.82 380.361 1302.99 384.114 1305 389.584Z" fill="black"/>
</g>
</g>
<defs>
<clipPath id="clip0">
<rect width="1308" height="952" fill="white"/>
</clipPath>
</defs>
</svg>
