<svg width="528" height="434" viewBox="0 0 528 434" fill="none" xmlns="http://www.w3.org/2000/svg">
<g id="undraw_baby_ja7a 1">
<g clip-path="url(#clip0)">
<path id="Vector" opacity="0.1" d="M226.489 428.755C262.62 428.755 291.91 419.122 291.91 407.24C291.91 395.357 262.62 385.724 226.489 385.724C190.357 385.724 161.067 395.357 161.067 407.24C161.067 419.122 190.357 428.755 226.489 428.755Z" fill="#6C63FF"/>
<path id="Vector_2" d="M360.643 185.96L363.017 318.482L368.063 319.107L366.161 185.434L360.643 185.96Z" fill="#F5C5CC"/>
<path id="Vector_3" d="M348.442 183.467L350.816 315.989L355.862 316.613L353.961 182.94L348.442 183.467Z" fill="#F5C5CC"/>
<path id="Vector_4" d="M351.425 176.539L351.671 321.079L356.83 320.562L354.865 173.7L351.425 176.539Z" fill="#CC929B"/>
<path id="Vector_5" d="M209.109 152.406L211.285 272.534L216.332 273.092L214.632 151.921L209.109 152.406Z" fill="#F5C5CC"/>
<path id="Vector_6" d="M212.023 150.161L214.519 275.187L216.332 273.092L214.632 151.921L212.023 150.161Z" fill="#CC929B"/>
<path id="Vector_7" d="M219.845 155.447L222.022 275.569L227.068 276.127L225.368 154.962L219.845 155.447Z" fill="#F5C5CC"/>
<path id="Vector_8" d="M222.759 153.196L225.26 278.223L227.068 276.127L225.368 154.962L222.759 153.196Z" fill="#CC929B"/>
<path id="Vector_9" d="M230.341 158.74L232.518 278.868L237.564 279.425L235.864 158.26L230.341 158.74Z" fill="#F5C5CC"/>
<path id="Vector_10" d="M233.255 156.5L235.756 281.521L237.564 279.426L235.864 158.26L233.255 156.5Z" fill="#CC929B"/>
<path id="Vector_11" d="M240.552 159.411L242.792 283.757L247.839 284.335L246.07 158.916L240.552 159.411Z" fill="#F5C5CC"/>
<path id="Vector_12" d="M243.461 157.088L246.031 286.503L247.839 284.335L246.07 158.916L243.461 157.088Z" fill="#CC929B"/>
<path id="Vector_13" d="M251.622 160.382L253.868 284.722L258.914 285.3L257.145 159.881L251.622 160.382Z" fill="#F5C5CC"/>
<path id="Vector_14" d="M254.536 158.059L257.106 287.468L258.914 285.3L257.145 159.881L254.536 158.059Z" fill="#CC929B"/>
<path id="Vector_15" d="M262.501 164.444L264.742 288.79L269.788 289.368L268.024 163.949L262.501 164.444Z" fill="#F5C5CC"/>
<path id="Vector_16" d="M265.41 162.122L267.98 291.536L269.788 289.368L268.024 163.949L265.41 162.122Z" fill="#CC929B"/>
<path id="Vector_17" d="M274.953 167.129L277.252 294.943L282.299 295.536L280.476 166.618L274.953 167.129Z" fill="#F5C5CC"/>
<path id="Vector_18" d="M277.862 164.744L280.49 297.767L282.299 295.536L280.476 166.618L277.862 164.744Z" fill="#CC929B"/>
<path id="Vector_19" d="M285.787 168.486L288.082 296.3L293.134 296.894L291.306 167.975L285.787 168.486Z" fill="#F5C5CC"/>
<path id="Vector_20" d="M288.696 166.096L291.325 299.124L293.134 296.894L291.306 167.975L288.696 166.096Z" fill="#CC929B"/>
<path id="Vector_21" d="M297.266 171.893L299.566 299.707L304.612 300.306L302.789 171.388L297.266 171.893Z" fill="#F5C5CC"/>
<path id="Vector_22" d="M300.18 169.508L302.804 302.536L304.612 300.306L302.789 171.388L300.18 169.508Z" fill="#CC929B"/>
<path id="Vector_23" d="M199.276 152.195L199.031 144.586L201.586 143.12L384.838 182.605L385.178 192.263L199.276 152.195Z" fill="#F5C5CC"/>
<path id="Vector_24" d="M201.586 143.12L385.512 182.574L385.325 186.192L199.409 144.364" fill="#CC929B"/>
<path id="Vector_25" d="M209.173 341.562L204.013 343.534H199.099L198.854 139.868L201.556 135.924L204.166 135.118L207.453 134.597L209.173 341.562Z" fill="#F5C5CC"/>
<path id="Vector_26" d="M209.173 341.562L204.013 343.534L203.694 140.27L204.166 135.118L207.453 134.597L209.173 341.562Z" fill="#CC929B"/>
<path id="Vector_27" d="M309.737 175.677L312.037 303.486L317.083 304.085L315.26 175.166L309.737 175.677Z" fill="#F5C5CC"/>
<path id="Vector_28" d="M312.646 173.287L315.275 306.315L317.083 304.085L315.26 175.166L312.646 173.287Z" fill="#CC929B"/>
<path id="Vector_29" d="M322.301 177.696L324.645 308.24L329.692 308.85L327.82 177.179L322.301 177.696Z" fill="#F5C5CC"/>
<path id="Vector_30" d="M335.239 180.086L337.613 312.608L342.659 313.232L340.762 179.559L335.239 180.086Z" fill="#F5C5CC"/>
<path id="Vector_31" d="M338.148 177.613L340.856 315.545L342.659 313.232L340.762 179.559L338.148 177.613Z" fill="#CC929B"/>
<path id="Vector_32" d="M137.678 302.495L132.518 303.011L132.278 160.439L132.273 158.472L135.712 155.633L135.766 159.587L137.678 302.495Z" fill="#F5C5CC"/>
<path id="Vector_33" d="M155.859 294.494L150.699 295.01L150.458 154.765L150.454 150.471L153.893 147.631L153.972 153.392L155.859 294.494Z" fill="#F5C5CC"/>
<path id="Vector_34" d="M185.832 281.588L180.673 282.105L180.437 143.631L180.427 137.565L183.867 134.726L183.975 142.769L185.832 281.588Z" fill="#F5C5CC"/>
<path id="Vector_35" d="M198.854 276.426L193.694 276.943L193.463 141.85L193.449 132.403L196.888 129.564L197.065 142.686L198.854 276.426Z" fill="#F5C5CC"/>
<path id="Vector_36" d="M146.768 300.946L141.609 301.463L141.363 157.956V156.923L144.803 154.084L144.837 156.805L146.768 300.946Z" fill="#F5C5CC"/>
<path id="Vector_37" d="M173.302 288.041L168.143 288.557L167.902 147.755L167.897 144.018L171.337 141.179L171.406 146.475L173.302 288.041Z" fill="#F5C5CC"/>
<path id="Vector_38" d="M164.703 290.622L159.544 291.138L159.308 151.188L159.298 146.599L162.738 143.76L162.816 149.738L164.703 290.622Z" fill="#F5C5CC"/>
<path id="Vector_39" d="M132.174 278.677L130.946 281.387C130.946 281.387 127.752 286.42 128.121 294.163C128.489 301.906 122.976 322.426 122.976 322.426C122.976 322.426 128.012 324.878 131.821 324.62C135.629 324.362 143.859 328.62 143.859 328.62L160.92 334.18L195.439 342.698C195.439 342.698 215.708 354.57 221.236 354.57C226.764 354.57 248.753 362.443 248.753 362.443C248.753 362.443 278.481 369.283 280.815 371.864C283.149 374.445 292.991 377.919 293.974 378.058C294.957 378.198 309.943 379.736 309.943 379.736C309.943 379.736 327.387 383.995 329.844 379.478C331.276 376.938 332.235 374.135 332.669 371.218C332.669 371.218 340.409 373.025 342.497 370.315C344.585 367.605 344.708 361.797 347.165 362.056C349.622 362.314 359.695 365.54 360.801 364.379C361.906 363.217 367.803 349.537 371.979 351.602C376.156 353.667 383.404 356.893 383.404 356.893L379.227 312.241L377.384 299.981C377.384 299.981 310.435 328.631 308.101 328.631C305.767 328.631 132.174 278.677 132.174 278.677Z" fill="#6C63FF"/>
<path id="Vector_40" d="M377.016 239.574L376.647 302.552L307.103 330.567L130.946 281.397C130.946 281.397 119.03 263.717 130.086 247.198C130.086 247.198 115.836 226.55 133.526 213.128L133.963 213.02L200.844 196.093L230.587 201.803L362.004 227.056C362.004 227.056 374.913 232.089 377.016 239.574Z" fill="#6C63FF"/>
<path id="Vector_41" opacity="0.1" d="M228.238 207.827C224.921 209.634 200.844 216.215 196.053 220.216C191.262 224.217 158.094 227.324 158.094 227.324L154.409 228.099C154.409 228.099 154.655 225.517 140.036 218.032C137.701 216.825 135.632 215.118 133.963 213.02L200.844 196.093L230.587 201.803C230.626 204.275 230.223 206.743 228.238 207.827Z" fill="black"/>
<path id="Vector_42" d="M127.138 182.93C127.138 182.93 125.909 207.966 140.528 215.451C155.146 222.936 154.915 225.507 154.915 225.507L158.6 224.733C158.6 224.733 145.825 209.763 146.685 207.182C147.545 204.601 135.26 191.566 133.526 191.05C131.791 190.534 127.138 182.93 127.138 182.93Z" fill="#6C63FF"/>
<path id="Vector_43" opacity="0.1" d="M127.398 183.307C127.398 183.307 126.17 208.343 140.788 215.828C155.407 223.313 155.161 225.894 155.161 225.894L158.846 225.12C158.846 225.12 146.07 210.15 146.93 207.569C147.79 204.988 135.491 191.953 133.786 191.437C132.081 190.921 127.398 183.307 127.398 183.307Z" fill="black"/>
<path id="Vector_44" opacity="0.1" d="M130.838 193.889C130.838 193.889 142.631 212.602 144.719 213.247C146.808 213.892 133.649 194.147 130.838 193.889Z" fill="black"/>
<path id="Vector_45" d="M125.433 179.435C125.433 179.435 133.049 172.983 134.032 171.692C135.015 170.402 145.825 169.885 146.193 169.885C146.562 169.885 154.792 164.594 164.006 162.916C173.219 161.239 176.904 160.464 176.904 160.464C176.904 160.464 190.417 154.528 191.154 153.237C191.891 151.947 198.156 150.527 205.895 156.851C213.634 163.175 230.709 191.566 230.832 194.663C230.955 197.761 232.061 203.439 228.744 205.246C225.427 207.053 201.35 213.634 196.559 217.635C191.768 221.636 158.586 224.743 158.586 224.743L146.07 210.408L139.437 199.18L128.381 186.92L125.433 179.435Z" fill="#6C63FF"/>
<path id="Vector_46" opacity="0.1" d="M145.972 290.896C145.972 290.896 141.388 291.928 144.007 294.68C146.626 297.431 145.972 290.896 145.972 290.896Z" fill="black"/>
<path id="Vector_47" opacity="0.1" d="M162.025 296.404C162.025 296.404 157.112 302.598 158.094 304.317C159.077 306.036 162.025 296.404 162.025 296.404Z" fill="black"/>
<path id="Vector_48" opacity="0.1" d="M190.854 304.317C190.854 304.317 185.94 310.512 186.923 312.231C187.906 313.95 190.854 304.317 190.854 304.317Z" fill="black"/>
<path id="Vector_49" opacity="0.1" d="M225.904 314.642C225.904 314.642 220.99 320.836 221.973 322.555C222.956 324.274 225.904 314.642 225.904 314.642Z" fill="black"/>
<path id="Vector_50" opacity="0.1" d="M273.076 327.031C273.076 327.031 268.162 333.225 269.145 334.944C270.127 336.663 273.076 327.031 273.076 327.031Z" fill="black"/>
<path id="Vector_51" opacity="0.1" d="M176.113 298.123C176.113 298.123 171.199 304.317 172.182 306.036C173.165 307.755 176.113 298.123 176.113 298.123Z" fill="black"/>
<path id="Vector_52" opacity="0.1" d="M244.576 319.804C244.576 319.804 239.662 325.998 240.645 327.717C241.628 329.436 244.576 319.804 244.576 319.804Z" fill="black"/>
<path id="Vector_53" opacity="0.1" d="M258.988 324.62C258.988 324.62 254.074 330.814 255.057 332.539C256.04 334.263 258.988 324.62 258.988 324.62Z" fill="black"/>
<path id="Vector_54" opacity="0.1" d="M203.63 308.447C203.63 308.447 198.716 314.641 199.699 316.36C200.682 318.079 203.63 308.447 203.63 308.447Z" fill="black"/>
<path id="Vector_55" opacity="0.1" d="M327.456 345.96L332.655 371.208C332.655 371.208 332.694 353.528 327.456 345.96Z" fill="black"/>
<path id="Vector_56" opacity="0.1" d="M343.504 349.744L347.15 362.056C347.15 362.056 346.782 357.317 343.504 349.744Z" fill="black"/>
<path id="Vector_57" opacity="0.1" d="M360.8 364.368C360.8 364.368 353.022 334.603 351.381 332.539C349.74 330.474 356.118 362.479 360.8 364.368Z" fill="black"/>
<path id="Vector_58" opacity="0.1" d="M370.038 350.43C370.038 350.43 360.869 333.571 364.471 330.474C368.073 327.376 370.038 350.43 370.038 350.43Z" fill="black"/>
<path id="Vector_59" opacity="0.1" d="M130.086 247.188L308.125 289.177L376.593 268.182L307.472 287.112C307.472 287.112 135.491 245.469 130.086 247.188Z" fill="black"/>
<path id="Vector_60" d="M135.467 201.576L135.712 321.724L140.749 322.369L140.995 201.188L135.467 201.576Z" fill="#F5C5CC"/>
<path id="Vector_61" d="M138.415 199.382L138.906 324.434L140.749 322.369L140.995 201.188L138.415 199.382Z" fill="#CC929B"/>
<path id="Vector_62" d="M146.154 204.802L146.4 324.95L151.436 325.596L151.682 204.415L146.154 204.802Z" fill="#F5C5CC"/>
<path id="Vector_63" d="M149.102 202.608L149.594 327.66L151.436 325.595L151.682 204.415L149.102 202.608Z" fill="#CC929B"/>
<path id="Vector_64" d="M156.596 208.286L156.841 328.435L161.878 329.08L162.124 207.899L156.596 208.286Z" fill="#F5C5CC"/>
<path id="Vector_65" d="M159.544 206.092L160.035 331.145L161.878 329.08L162.124 207.899L159.544 206.092Z" fill="#CC929B"/>
<path id="Vector_66" d="M166.792 209.138L167.037 333.504L172.074 334.17L172.32 208.735L166.792 209.138Z" fill="#F5C5CC"/>
<path id="Vector_67" d="M169.74 206.867L170.231 336.307L172.074 334.17L172.32 208.735L169.74 206.867Z" fill="#CC929B"/>
<path id="Vector_68" d="M177.848 210.3L178.093 334.665L183.13 335.331L183.376 209.897L177.848 210.3Z" fill="#F5C5CC"/>
<path id="Vector_69" d="M180.796 208.028L181.287 337.468L183.13 335.331L183.375 209.897L180.796 208.028Z" fill="#CC929B"/>
<path id="Vector_70" d="M188.658 214.558L188.903 338.924L193.94 339.59L194.186 214.156L188.658 214.558Z" fill="#F5C5CC"/>
<path id="Vector_71" d="M191.606 212.287L192.097 341.727L193.94 339.59L194.186 214.156L191.606 212.287Z" fill="#CC929B"/>
<path id="Vector_72" d="M204.013 215.126L204.505 348.18L206.347 345.981L206.593 217.046L204.013 215.126Z" fill="#CC929B"/>
<path id="Vector_73" d="M211.875 219.008L212.121 346.843L217.157 347.529L217.403 218.595L211.875 219.008Z" fill="#F5C5CC"/>
<path id="Vector_74" d="M214.823 216.675L215.315 349.728L217.157 347.529L217.403 218.595L214.823 216.675Z" fill="#CC929B"/>
<path id="Vector_75" d="M223.3 222.622L223.545 350.456L228.582 351.143L228.828 222.209L223.3 222.622Z" fill="#F5C5CC"/>
<path id="Vector_76" d="M226.248 220.288L226.739 353.342L228.582 351.143L228.827 222.209L226.248 220.288Z" fill="#CC929B"/>
<path id="Vector_77" d="M235.707 226.622L235.952 354.457L240.989 355.143L241.235 226.209L235.707 226.622Z" fill="#F5C5CC"/>
<path id="Vector_78" d="M238.655 224.289L239.146 357.342L240.989 355.143L241.235 226.209L238.655 224.289Z" fill="#CC929B"/>
<path id="Vector_79" d="M248.237 228.868L248.482 359.428L253.519 360.13L253.765 228.444L248.237 228.868Z" fill="#F5C5CC"/>
<path id="Vector_80" d="M251.185 226.483L251.676 362.376L253.519 360.13L253.765 228.444L251.185 226.483Z" fill="#CC929B"/>
<path id="Vector_81" d="M261.135 231.485L261.381 364.033L266.418 364.745L266.663 231.056L261.135 231.485Z" fill="#CC929B"/>
<path id="Vector_82" d="M274.28 235.098L274.525 367.646L279.562 368.359L279.807 234.67L274.28 235.098Z" fill="#F5C5CC"/>
<path id="Vector_83" d="M277.228 232.677L277.719 370.635L279.562 368.359L279.807 234.67L277.228 232.677Z" fill="#CC929B"/>
<path id="Vector_84" d="M286.441 237.809L286.687 370.356L291.723 371.069L291.969 237.38L286.441 237.809Z" fill="#CC929B"/>
<path id="Vector_85" d="M128.833 345.083L123.674 347.147H118.76L118.514 157.698L121.217 153.568L123.826 152.726L127.605 151.503L128.833 345.083Z" fill="#F5C5CC"/>
<path id="Vector_86" d="M128.833 345.083L123.674 347.147L123.354 158.116L123.826 152.726L127.605 151.503L128.833 345.083Z" fill="#CC929B"/>
<path id="Vector_87" d="M124.165 353.084C127.422 353.084 130.062 350.31 130.062 346.889C130.062 343.468 127.422 340.695 124.165 340.695C120.908 340.695 118.269 343.468 118.269 346.889C118.269 350.31 120.908 353.084 124.165 353.084Z" fill="#40414D"/>
<path id="Vector_88" d="M392.7 374.083L387.541 376.055H382.627L382.382 167.743L385.084 168.445L387.693 167.64L391.472 166.473L392.7 374.083Z" fill="#F5C5CC"/>
<path id="Vector_89" d="M392.7 374.083L387.541 376.055L387.222 172.792L387.693 167.64L391.472 166.473L392.7 374.083Z" fill="#CC929B"/>
<path id="Vector_90" d="M321.206 335.016L316.046 335.533L315.81 196.367L315.801 190.993L319.24 188.154L319.338 195.572L321.206 335.016Z" fill="#F5C5CC"/>
<path id="Vector_91" d="M339.386 327.015L334.227 327.531L333.996 190.936L333.981 182.992L337.421 180.153L337.549 189.579L339.386 327.015Z" fill="#F5C5CC"/>
<path id="Vector_92" d="M369.36 314.11L364.201 314.626L363.97 178.351L363.955 170.087L367.395 167.247L367.522 176.803L369.36 314.11Z" fill="#F5C5CC"/>
<path id="Vector_93" d="M376.976 164.925L377.222 309.464L382.382 308.948L380.416 162.085L376.976 164.925Z" fill="#F5C5CC"/>
<path id="Vector_94" d="M330.296 333.468L325.137 333.984L324.901 194.029L324.891 189.445L328.331 186.605L328.414 192.908L330.296 333.468Z" fill="#F5C5CC"/>
<path id="Vector_95" d="M348.231 323.143L343.072 323.66L342.841 187.426L342.826 179.12L346.266 176.281L346.393 185.924L348.231 323.143Z" fill="#F5C5CC"/>
<path id="Vector_96" d="M358.221 319.7L353.061 320.217L352.83 183.983V183.173L352.816 175.677L356.255 172.838L356.373 181.645L356.383 182.481L358.221 319.7Z" fill="#F5C5CC"/>
<path id="Vector_97" d="M310.887 334.072L382.136 302.237L387.05 303.44L387.212 315.313L312.199 345.769L310.887 334.072Z" fill="#F5C5CC"/>
<path id="Vector_98" d="M382.136 302.237L310.887 334.072L386.784 303.373" fill="#CC929B"/>
<path id="Vector_99" d="M126.293 317.207L305.973 374.507L305.644 383.798L125.639 325.466L126.293 317.207Z" fill="#F5C5CC"/>
<path id="Vector_100" d="M313.835 407.028L308.676 409.093H303.762L303.516 196.93V195.897L303.899 195.309L306.219 191.768L308.828 190.926L312.607 189.703L312.646 196.93L313.835 407.028Z" fill="#F5C5CC"/>
<path id="Vector_101" d="M313.835 407.028L308.676 409.093L308.356 196.315L308.828 190.926L312.607 189.703L313.835 407.028Z" fill="#CC929B"/>
<path id="Vector_102" opacity="0.1" d="M312.607 189.703L312.646 196.93C311.224 197.148 309.792 197.289 308.356 197.353C304.818 197.498 303.516 196.935 303.516 196.935C303.516 196.863 303.654 196.284 303.899 195.319L306.219 191.778L308.828 190.936L312.607 189.703Z" fill="black"/>
<path id="Vector_103" opacity="0.1" d="M319.24 188.154L319.338 195.572C318.071 195.882 316.895 196.147 315.81 196.367V190.993L319.24 188.154Z" fill="black"/>
<path id="Vector_104" opacity="0.1" d="M328.331 186.605L328.414 192.908C327.191 193.316 326.016 193.688 324.901 194.029V189.445L328.331 186.605Z" fill="black"/>
<path id="Vector_105" opacity="0.1" d="M337.421 180.153L337.549 189.579C336.32 190.057 335.136 190.51 333.996 190.936V182.992L337.421 180.153Z" fill="black"/>
<path id="Vector_106" opacity="0.1" d="M346.266 176.281L346.393 185.924L343.563 187.122L342.841 187.426V179.12L346.266 176.281Z" fill="black"/>
<path id="Vector_107" opacity="0.1" d="M367.522 176.803L363.97 178.351V170.092L367.409 167.253L367.522 176.803Z" fill="black"/>
<path id="Vector_108" opacity="0.1" d="M356.378 181.645L352.835 183.193V175.698L356.275 172.859L356.378 181.645Z" fill="black"/>
<path id="Vector_109" d="M394.42 171.119C394.42 171.119 385.33 171.119 382.873 170.345C380.416 169.57 375.257 172.668 343.563 186.089C324.4 194.209 313.761 196.093 308.356 196.315C304.818 196.46 303.516 195.897 303.516 195.897C303.516 195.897 309.988 164.708 330.596 158.88C332.894 158.222 335.153 157.424 337.362 156.49L337.76 156.33C339.491 155.625 341.265 155.048 343.072 154.6C349.686 153.005 354.408 149.954 366.363 149.861C373.78 149.731 381.02 152.254 386.892 157.016C390.99 160.403 394.523 165.085 394.42 171.119Z" fill="#CC929B"/>
<path id="Vector_110" d="M338.649 156.149C313.147 167.702 309.255 189.295 308.356 196.315C304.818 196.46 303.516 195.897 303.516 195.897C303.516 195.897 309.988 164.708 330.596 158.88C332.894 158.222 335.153 157.424 337.362 156.49L337.76 156.33C338.055 156.283 338.35 156.221 338.649 156.149Z" fill="#F5C5CC"/>
<path id="Vector_111" opacity="0.1" d="M135.712 155.633L135.766 159.587C134.523 159.912 133.364 160.196 132.278 160.439V158.472L135.712 155.633Z" fill="black"/>
<path id="Vector_112" opacity="0.1" d="M144.803 154.084L144.837 156.805C143.628 157.224 142.47 157.608 141.363 157.956V156.923L144.803 154.084Z" fill="black"/>
<path id="Vector_113" opacity="0.1" d="M153.893 147.631L153.972 153.392C152.763 153.878 151.592 154.335 150.458 154.765V150.471L153.893 147.631Z" fill="black"/>
<path id="Vector_114" opacity="0.1" d="M162.738 143.76L162.816 149.738C161.686 150.195 160.517 150.679 159.308 151.188V146.599L162.738 143.76Z" fill="black"/>
<path id="Vector_115" opacity="0.1" d="M171.337 141.179L171.406 146.475C170.292 146.867 169.124 147.294 167.902 147.755V144.018L171.337 141.179Z" fill="black"/>
<path id="Vector_116" opacity="0.1" d="M183.867 134.726L183.975 142.769C182.889 143.006 181.715 143.285 180.437 143.631V137.565L183.867 134.726Z" fill="black"/>
<path id="Vector_117" opacity="0.1" d="M197.065 142.666C195.909 142.208 194.696 141.926 193.463 141.829V132.383L196.903 129.543L197.065 142.666Z" fill="black"/>
<path id="Vector_118" d="M209.418 142.727C209.418 142.727 200.328 142.727 197.871 141.953C195.414 141.179 190.255 137.049 158.561 150.471C139.398 158.591 128.759 160.475 123.354 160.697C119.816 160.841 118.514 160.279 118.514 160.279C118.514 160.279 123.394 133.178 144.911 128.604C146.112 128.358 147.298 128.039 148.463 127.649C149.785 127.195 151.869 126.544 154.669 125.868C161.893 124.123 173.867 122.208 189.783 123.018C195.299 123.235 200.531 125.645 204.421 129.76C206.048 131.452 207.331 133.474 208.19 135.704C209.049 137.933 209.467 140.323 209.418 142.727V142.727Z" fill="#CC929B"/>
<path id="Vector_119" d="M154.669 125.868C129.167 137.421 124.253 153.676 123.354 160.697C119.816 160.841 118.514 160.279 118.514 160.279C118.514 160.279 123.394 133.178 144.911 128.604C146.112 128.358 147.298 128.039 148.463 127.649C149.785 127.179 151.869 126.544 154.669 125.868Z" fill="#F5C5CC"/>
<path id="Vector_120" d="M125.639 201.188L125.516 193.574L128.096 192.155L304.499 233.71L304.008 243.389L125.639 201.188Z" fill="#F5C5CC"/>
<path id="Vector_121" d="M128.096 192.155L304.499 233.71L304.253 237.323L125.9 193.363" fill="#CC929B"/>
<path id="Vector_122" d="M387.541 382.25C390.798 382.25 393.438 379.476 393.438 376.055C393.438 372.634 390.798 369.861 387.541 369.861C384.284 369.861 381.645 372.634 381.645 376.055C381.645 379.476 384.284 382.25 387.541 382.25Z" fill="#40414D"/>
<path id="Vector_123" d="M309.413 417.352C312.669 417.352 315.309 414.579 315.309 411.158C315.309 407.736 312.669 404.963 309.413 404.963C306.156 404.963 303.516 407.736 303.516 411.158C303.516 414.579 306.156 417.352 309.413 417.352Z" fill="#40414D"/>
<path id="Vector_124" d="M132.356 283.824C132.356 283.824 127.113 290.018 125.477 295.526C123.841 301.034 127.443 321.683 127.443 321.683C129.289 318.247 130.615 314.531 131.373 310.667C132.681 304.131 132.356 283.824 132.356 283.824Z" fill="#6C63FF"/>
<path id="Vector_125" d="M381.153 335.274C381.153 335.274 384.347 352.309 384.593 354.891C384.838 357.472 376.485 353.6 376.485 353.6L381.153 335.274Z" fill="#6C63FF"/>
<path id="Vector_126" d="M249.588 393.735C248.237 393.735 246.763 396.187 246.763 396.187C234.601 401.35 233.373 388.444 233.987 386.896C234.601 385.347 237.058 376.83 237.058 376.83C237.058 376.83 236.689 370.893 236.321 369.215C235.948 367.954 235.494 366.72 234.96 365.524C234.134 363.547 233.25 361.601 233.25 361.601C233.25 361.601 238.532 347.922 245.534 349.212C246.782 349.432 247.962 349.963 248.974 350.761C252.821 353.806 253.052 360.357 250.188 365.215C246.625 371.28 251.785 382.766 253.013 386.508C254.241 390.251 250.939 393.735 249.588 393.735Z" fill="#FDC2CC"/>
<path id="Vector_127" d="M231.039 415.545C227.476 423.676 217.649 415.416 216.175 415.158C214.701 414.9 210.524 412.319 210.033 409.738C209.541 407.157 203.463 401.876 203.153 401.613C203.482 401.721 203.202 401.706 202.898 401.097C193.807 397.612 197.738 390.772 197.738 390.772L201.974 375.09L203.143 370.769L216.411 369.866C216.411 369.866 215.501 372.917 214.489 376.122C213.423 379.483 212.244 383.019 211.865 383.416C211.128 384.191 212.234 389.224 212.848 390.256C213.462 391.289 217.27 397.096 217.27 397.096L224.764 402.129C224.764 402.129 234.601 407.415 231.039 415.545Z" fill="#FDC2CC"/>
<path id="Vector_128" opacity="0.1" d="M216.42 369.861C216.42 369.861 215.511 372.911 214.499 376.117C213.806 375.908 213.19 375.481 212.735 374.894L202.048 375.152L201.984 375.085L203.153 370.764L216.42 369.861Z" fill="black"/>
<path id="Vector_129" d="M259.661 229.58C259.661 229.58 259.661 229.652 259.597 229.792C258.575 233.08 245.996 273.67 245.289 275.91C244.551 278.233 240.989 286.234 240.989 286.234C240.989 286.234 239.146 293.203 239.146 294.365C239.146 295.526 236.567 300.301 236.812 301.463C237.058 302.624 235.093 305.721 235.093 307.786C235.093 309.851 234.97 311.658 235.093 313.077C235.186 314.167 235.643 320.248 233.859 324.434C233.47 325.408 232.893 326.287 232.164 327.015C231.965 327.204 231.754 327.376 231.53 327.531C227.108 330.629 226.739 362.376 226.739 362.376L226.533 362.716L224.739 365.669L219.246 374.651C219.246 374.651 214.823 376.587 212.735 373.877L202.048 374.135C202.048 374.135 199.468 371.425 198.854 371.167C198.24 370.909 199.099 366.005 199.099 366.005C199.099 366.005 198.731 364.069 198.977 363.036C199.222 362.004 200.574 353.745 200.574 353.745C200.574 353.745 202.171 352.325 202.048 350.905C201.925 349.486 203.399 339.936 203.399 339.936L204.912 333.375L205.659 330.138L207.207 323.427L217.649 226.509L230.916 222.25L256.467 223.54L259.268 228.857L259.661 229.58Z" fill="#5F5D7E"/>
<path id="Vector_130" opacity="0.1" d="M223.668 277.201C223.545 279.653 222.931 283.395 223.177 285.589C223.422 287.783 224.282 296.042 223.914 297.591C223.545 299.14 225.265 300.946 225.879 301.721C226.493 302.495 226.125 304.818 226.248 306.625C226.371 308.431 227.968 310.109 227.968 310.109C227.968 310.109 226.125 314.239 227.476 314.884C228.827 315.529 231.653 321.466 231.653 321.466C231.653 321.466 232.601 322.72 233.859 324.424C233.378 325.667 232.57 326.741 231.53 327.521C227.108 330.618 226.739 362.365 226.739 362.365L226.533 362.706L223.791 356.945C223.791 356.945 207.453 331.005 206.347 330.618C206.081 330.509 205.844 330.331 205.659 330.102L207.207 323.391L217.649 226.472L230.916 222.214L256.467 223.504L243.013 224.924C243.013 224.924 237.033 229.43 236.994 229.57L226.248 234.345L224.282 265.317C224.282 265.317 223.791 274.749 223.668 277.201Z" fill="black"/>
<path id="Vector_131" opacity="0.1" d="M259.268 228.832C258.929 230.267 223.545 225.967 223.545 225.967L223.791 235.904L221.825 266.876C221.825 266.876 221.334 276.297 221.211 278.749C221.088 281.201 220.474 284.944 220.72 287.138C220.966 289.332 221.825 297.591 221.457 299.14C221.088 300.688 222.808 302.495 223.422 303.269C224.037 304.044 223.668 306.367 223.791 308.173C223.914 309.98 225.511 311.658 225.511 311.658C225.511 311.658 223.668 315.787 225.019 316.433C226.371 317.078 229.196 323.014 229.196 323.014C229.196 323.014 230.547 324.806 232.144 327.005C231.946 327.193 231.734 327.366 231.51 327.521C227.088 330.618 226.72 362.365 226.72 362.365L226.513 362.706L224.739 365.669L221.334 358.519C221.334 358.519 208.73 338.506 204.912 333.375L205.659 330.138L207.207 323.427L217.649 226.509L230.916 222.25L256.467 223.54L259.268 228.832Z" fill="black"/>
<path id="Vector_132" opacity="0.1" d="M248.989 350.74C248.497 359.98 239.23 364.502 234.96 365.524C234.134 363.547 233.25 361.601 233.25 361.601C233.25 361.601 238.532 347.922 245.534 349.212C246.786 349.423 247.97 349.947 248.989 350.74V350.74Z" fill="black"/>
<path id="Vector_133" d="M222.194 277.201C222.071 279.653 221.457 283.395 221.703 285.589C221.948 287.783 222.808 296.042 222.44 297.591C222.071 299.14 223.791 300.946 224.405 301.721C225.019 302.495 224.651 304.818 224.774 306.625C224.896 308.431 226.493 310.109 226.493 310.109C226.493 310.109 224.651 314.239 226.002 314.884C227.353 315.529 230.179 321.466 230.179 321.466C230.179 321.466 238.164 332.048 238.532 333.339C238.901 334.629 242.095 335.404 242.095 335.404C242.095 335.404 247.622 336.049 248.482 348.438C249.342 360.827 234.847 365.602 232.636 365.215C230.424 364.828 225.879 364.44 225.879 364.44L222.317 356.955C222.317 356.955 205.979 331.016 204.873 330.629C203.767 330.241 202.785 327.789 202.539 326.112C202.293 324.434 201.188 323.789 199.959 323.014C198.731 322.24 198.977 317.981 197.994 316.949C197.011 315.917 197.134 312.69 196.52 311.787C195.905 310.883 197.011 308.561 197.011 308.561C197.011 308.561 194.431 305.463 194.431 305.076C194.431 304.689 194.554 301.592 194.554 301.592C194.554 301.592 193.326 300.172 193.694 298.753C194.063 297.333 192.712 293.978 192.712 293.978C192.712 293.978 191.606 292.558 191.729 291.526C191.852 290.493 191.115 285.976 191.115 285.976C191.115 285.976 190.255 283.782 190.378 282.234C190.5 280.685 189.395 274.491 189.395 274.491C189.395 274.491 188.289 272.684 188.289 271.522C188.289 270.361 188.412 265.973 188.412 265.973C188.412 265.973 186.447 262.231 187.306 260.424C188.166 258.617 187.061 253.197 186.324 252.164C185.587 251.132 184.972 242.098 184.235 241.324C183.498 240.55 184.235 237.452 184.235 237.452L183.13 226.483C183.13 226.483 182.393 222.611 183.007 221.45C183.621 220.288 182.761 217.449 182.516 216.159C182.27 214.868 183.13 210.867 182.884 209.448C182.781 208.849 183.11 207.207 183.528 205.499C184.108 203.145 184.85 200.672 184.85 200.672C184.85 200.672 247.991 194.478 257.081 200.93C259.047 202.314 260.261 204.415 261.012 206.872C263.7 215.875 259.681 229.585 259.681 229.585L224.793 234.36L222.828 265.333C222.828 265.333 222.317 274.749 222.194 277.201Z" fill="#5F5D7E"/>
<path id="Vector_134" opacity="0.1" d="M212.121 323.143C212.121 323.143 223.054 319.659 225.634 321.982C228.213 324.305 212.121 323.143 212.121 323.143Z" fill="black"/>
<path id="Vector_135" opacity="0.1" d="M216.052 337.856C216.052 337.856 219.369 334.113 224.282 335.274C227.165 335.98 230.189 335.662 232.881 334.371L216.052 337.856Z" fill="black"/>
<path id="Vector_136" opacity="0.1" d="M227.599 342.114C227.599 342.114 236.567 340.824 236.935 341.985C237.304 343.147 227.599 342.114 227.599 342.114Z" fill="black"/>
<path id="Vector_137" opacity="0.1" d="M225.019 349.728C225.019 349.728 234.97 346.631 235.461 347.922C235.952 349.212 224.528 349.599 224.528 349.599L225.019 349.728Z" fill="black"/>
<path id="Vector_138" opacity="0.1" d="M236.198 280.169C236.198 280.169 226.862 288.815 228.213 289.719C229.565 290.622 236.198 280.169 236.198 280.169Z" fill="black"/>
<path id="Vector_139" opacity="0.1" d="M228.582 301.592C228.582 301.592 235.092 301.592 233.864 303.14C232.636 304.689 228.582 301.592 228.582 301.592Z" fill="black"/>
<path id="Vector_140" opacity="0.1" d="M232.513 307.657C232.513 307.657 229.933 309.98 230.547 310.496C231.162 311.013 232.513 307.657 232.513 307.657Z" fill="black"/>
<path id="Vector_141" opacity="0.1" d="M204.136 363.021C204.136 363.021 212.244 365.86 212.367 367.667C212.489 369.474 204.136 363.021 204.136 363.021Z" fill="black"/>
<path id="Vector_142" d="M243.446 93.1711L240.866 109.303C240.866 109.303 218.509 121.692 218.14 121.692C217.772 121.692 201.802 118.853 201.188 118.853C200.574 118.853 190.132 85.686 197.502 83.6212C199.497 83.0637 202.392 81.7215 205.551 80.0541C214.072 75.5786 224.528 68.7801 224.528 68.7801C224.528 68.7801 240.129 66.9733 236.321 78.33C234.847 82.7849 235.604 86.0267 237.092 88.3239C239.431 91.8857 243.446 93.1711 243.446 93.1711Z" fill="#FDC2CC"/>
<path id="Vector_143" opacity="0.1" d="M243.446 93.1711L240.866 109.303C240.866 109.303 218.509 121.692 218.14 121.692C217.772 121.692 201.802 118.853 201.188 118.853C200.574 118.853 190.132 85.686 197.502 83.6212C199.497 83.0636 202.392 81.7215 205.551 80.0541C207.561 80.1935 208.927 80.3948 208.927 80.3948C208.927 80.3948 213.841 100.14 214.209 106.205C214.578 112.271 227.353 112.916 228.213 112.658C229.073 112.4 232.636 97.5589 232.636 97.5589C232.636 97.5589 232.267 92.3968 233.373 92.3968C234.296 92.3968 236.429 89.2995 237.092 88.3238C239.431 91.8857 243.446 93.1711 243.446 93.1711Z" fill="black"/>
<path id="Vector_144" opacity="0.1" d="M260.993 206.872C259.283 207.749 255.195 209.752 254.114 209.453C252.762 209.066 249.446 209.066 249.446 209.066C249.446 209.066 247.48 211.389 245.392 210.873C243.303 210.356 235.073 210.744 235.073 210.744C235.073 210.744 220.332 211.389 217.506 210.356C214.681 209.324 204.608 208.421 204.608 208.421C204.608 208.421 190.849 206.743 188.515 205.71C187.857 205.409 187.134 205.298 186.421 205.388C185.709 205.479 185.032 205.769 184.461 206.227C184.461 206.227 184.034 205.932 183.508 205.504C184.088 203.15 184.83 200.677 184.83 200.677C184.83 200.677 247.971 194.483 257.062 200.935C259.027 202.314 260.261 204.415 260.993 206.872Z" fill="black"/>
<path id="Vector_145" d="M208.927 81.4273C208.927 81.4273 196.52 79.6205 191.606 83.1049C189.86 84.3165 187.886 85.1176 185.818 85.4537C183.045 85.9051 180.547 87.4688 178.85 89.8157C178.535 90.2596 178.231 90.559 177.97 90.59C176.865 90.7191 170.723 110.722 170.723 110.722L185.587 132.532C185.587 132.532 185.218 144.663 187.307 146.986C189.395 149.309 184.358 175.894 184.358 175.894C184.358 175.894 181.901 185.057 183.007 186.476C184.113 187.896 183.007 189.703 183.007 189.703C183.007 189.703 182.761 192.026 183.376 192.026C183.99 192.026 184.727 194.994 184.113 195.123C183.498 195.252 180.673 197.704 181.656 198.22C182.638 198.736 181.656 199.898 181.656 201.059C181.656 202.221 184.481 204.157 184.481 204.157C185.052 203.698 185.728 203.409 186.441 203.318C187.154 203.227 187.877 203.339 188.535 203.64C190.869 204.673 204.627 206.351 204.627 206.351C204.627 206.351 214.701 207.254 217.526 208.286C220.351 209.319 235.093 208.673 235.093 208.673C235.093 208.673 243.323 208.286 245.411 208.803C247.5 209.319 249.465 206.996 249.465 206.996C249.465 206.996 252.782 206.996 254.133 207.383C255.485 207.77 261.75 204.415 261.75 204.415C261.75 204.415 260.153 199.511 260.89 197.704C261.627 195.897 261.135 192.413 261.135 192.413C261.135 192.413 258.187 190.606 258.064 189.832C257.941 189.057 256.713 188.025 257.081 186.993C257.45 185.96 259.538 186.476 259.293 184.153C259.047 181.83 256.467 179.378 256.713 177.959C256.959 176.539 257.941 173.958 256.713 172.41C255.485 170.861 254.993 168.409 254.87 166.473C254.747 164.537 256.713 146.986 256.713 146.986L252.168 111.626L266.049 104.399C266.049 104.399 265.435 99.3656 264.575 96.6555C263.715 93.9454 262.487 89.1704 262.487 89.1704C262.487 89.1704 259.661 83.363 259.047 83.1049C258.433 82.8468 251.922 78.33 250.448 78.9752C248.974 79.6205 237.304 89.0414 237.304 89.0414C237.304 89.0414 234.478 93.4292 233.373 93.4292C232.267 93.4292 232.636 98.5913 232.636 98.5913C232.636 98.5913 229.073 113.432 228.213 113.69C227.353 113.949 214.578 113.303 214.209 107.238C213.841 101.172 208.927 81.4273 208.927 81.4273Z" fill="#D39999"/>
<path id="Vector_146" d="M189.665 157.729C187.961 158.122 186.225 158.347 184.481 158.4C181.96 158.472 179.744 158.136 179.199 157.181C177.725 154.6 177.725 149.696 177.725 149.696C177.725 149.696 184.388 151.312 188.987 153.077L189.749 153.377C191.532 154.105 192.889 154.848 193.188 155.499C193.616 156.371 191.97 157.187 189.665 157.729Z" fill="#FDC2CC"/>
<path id="Vector_147" opacity="0.1" d="M188.166 188.799C188.166 188.799 194.554 188.799 197.011 189.445C199.468 190.09 204.627 190.219 204.627 190.219C204.627 190.219 190.378 189.703 188.166 188.799Z" fill="black"/>
<path id="Vector_148" opacity="0.1" d="M188.412 192.929C188.412 192.929 196.643 193.574 196.765 194.865C196.888 196.155 188.412 192.929 188.412 192.929Z" fill="black"/>
<path id="Vector_149" opacity="0.1" d="M251.062 177.056C251.062 177.056 256.099 178.991 255.976 179.637C255.853 180.282 251.554 178.604 251.062 177.056Z" fill="black"/>
<path id="Vector_150" d="M173.917 108.399L170.723 110.722C170.723 110.722 169.371 118.982 169.371 120.917C169.371 122.853 167.16 136.791 167.16 136.791C167.16 136.791 166.423 139.372 166.669 140.404C166.914 141.437 165.686 146.728 165.686 146.728C165.686 146.728 161.264 157.439 161.509 158.085C161.755 158.73 182.516 160.795 182.516 160.795L185.464 131.887L173.917 108.399Z" fill="#D39999"/>
<path id="Vector_151" d="M164.58 154.6L161.509 158.085C161.509 158.085 161.387 169.441 164.458 170.603C167.529 171.764 169.494 171.248 170.477 172.151C171.46 173.055 176.742 174.733 176.742 174.733C176.742 174.733 182.516 175.636 184.235 175.378C185.955 175.12 174.162 165.183 181.901 156.794L164.58 154.6Z" fill="#D39999"/>
<g id="Baby">
<path id="Vector_152" d="M261.75 99.3656L266.049 104.399C266.049 104.399 267.892 116.401 267.4 118.078C266.909 119.756 269.98 148.922 269.98 148.922C269.98 148.922 272.928 161.569 266.295 163.247C265.706 163.791 265.17 164.396 264.698 165.054C264.452 165.57 259.17 164.796 259.17 164.796L251.062 108.916L261.75 99.3656Z" fill="#D39999"/>
<path id="Vector_153" opacity="0.1" d="M203.276 145.567C203.276 145.567 219.369 135.5 222.317 134.984C225.265 134.468 243.569 125.305 243.569 125.305C243.569 125.305 252.659 130.209 253.519 133.952C254.379 137.694 249.711 152.664 249.711 152.664C249.711 152.664 234.724 163.634 233.864 165.957C233.004 168.28 220.106 175.12 220.106 176.281C220.106 177.443 199.714 190.09 190.746 178.991C181.779 167.893 181.901 164.666 181.901 164.666L204.627 159.117L206.839 148.793L203.276 145.567Z" fill="black"/>
<path id="Vector_154" d="M203.276 144.534C203.276 144.534 219.369 134.468 222.317 133.952C225.265 133.436 243.569 124.273 243.569 124.273C243.569 124.273 252.659 129.177 253.519 132.919C254.379 136.662 249.711 151.632 249.711 151.632C249.711 151.632 234.724 162.602 233.864 164.925C233.004 167.247 220.106 174.087 220.106 175.249C220.106 176.41 199.714 189.057 190.746 177.959C181.779 166.86 181.901 163.634 181.901 163.634L204.627 158.085L206.839 147.76L203.276 144.534Z" fill="#C4C8E2"/>
<path id="Vector_155" d="M178.462 149.051L177.725 155.504L171.882 155.055L166.177 154.611C166.177 154.611 162.861 154.611 160.772 149.449C158.684 144.286 165.44 143.512 165.809 144.286C166.089 144.87 173.18 147.301 176.619 148.452L178.462 149.051Z" fill="#FDC2CC"/>
<path id="Vector_156" opacity="0.1" d="M178.462 149.051L177.725 155.504L171.882 155.055C172.836 153.568 174.831 150.847 176.624 148.452L178.462 149.051Z" fill="black"/>
<path id="Vector_157" opacity="0.1" d="M177.725 149.696C177.725 149.696 184.388 151.312 188.987 153.077C188.682 153.594 186.648 156.939 184.481 158.4C181.96 158.472 179.744 158.136 179.199 157.181C177.725 154.6 177.725 149.696 177.725 149.696Z" fill="black"/>
<path id="Vector_158" opacity="0.1" d="M189.665 157.729L189.557 156.835C189.557 156.835 189.508 156.644 189.464 156.355C189.375 155.767 189.311 154.776 189.724 154.172C189.965 153.816 189.911 153.563 189.753 153.382C191.537 154.11 192.893 154.853 193.193 155.504C193.616 156.371 191.97 157.187 189.665 157.729Z" fill="black"/>
<path id="Vector_159" d="M210.524 153.506C210.524 153.506 203.851 160.521 203.438 162.023C203.026 163.526 190.417 163.572 190.417 163.572L189.557 156.345C189.557 156.345 189.508 156.154 189.464 155.865C189.375 155.277 189.311 154.285 189.724 153.681C190.338 152.778 189.026 152.52 189.026 152.52C189.026 152.52 185.626 158.41 182.761 158.585C182.761 158.585 178.791 161.595 178.83 162.199C178.83 162.199 176.904 164.047 176.865 166.282C176.826 168.517 174.369 169.426 172.565 168.781C170.762 168.135 166.3 166.757 164.865 166.974C163.431 167.191 158.89 168.605 159.053 164.176C159.053 164.176 164.949 159.53 166.423 159.659C167.897 159.788 171.337 157.981 171.828 156.562C172.32 155.142 180.673 144.302 180.673 144.302C180.673 144.302 185.955 139.052 188.083 138.536C188.083 138.536 192.343 135.051 198.77 140.343C198.77 140.343 207.659 146.103 207.944 146.878C208.17 147.487 210.75 150.089 210.966 152.04C211.016 152.304 211.002 152.576 210.924 152.833C210.847 153.089 210.709 153.321 210.524 153.506V153.506Z" fill="#FDC2CC"/>
<path id="Vector_160" opacity="0.1" d="M189.68 143.244C189.68 143.244 190.333 147.203 190.009 148.623C189.685 150.042 189.026 152.494 189.026 152.494C189.026 152.494 192.997 145.954 189.68 143.244Z" fill="black"/>
<path id="Vector_161" opacity="0.1" d="M189.965 152.881C189.965 152.881 192.014 150.512 192.466 151.116C192.918 151.72 189.965 152.881 189.965 152.881Z" fill="black"/>
<path id="Vector_162" d="M273.852 128.728C273.852 132.012 272.833 135.206 270.95 137.828C269.067 140.449 266.422 142.354 263.415 143.254C262.158 143.634 260.856 143.828 259.548 143.832H259.474C257.587 143.831 255.718 143.44 253.975 142.681C252.231 141.921 250.647 140.809 249.313 139.406C247.979 138.003 246.921 136.339 246.199 134.506C245.477 132.674 245.106 130.711 245.107 128.728C245.104 127.841 245.18 126.957 245.333 126.085C245.893 122.783 247.486 119.772 249.858 117.528C252.231 115.284 255.248 113.935 258.433 113.696C258.777 113.665 259.126 113.649 259.474 113.649C263.284 113.648 266.938 115.235 269.634 118.063C272.33 120.89 273.847 124.726 273.852 128.728V128.728Z" fill="#F8BDC5"/>
<path id="Vector_163" d="M281.434 126.875C282.136 127.757 282.546 128.855 282.603 130.003C281.169 130.142 279.655 130.323 278.515 131.268C277.532 132.073 277.041 133.332 276.55 134.504C276.101 135.609 275.655 136.714 275.213 137.818C274.515 139.548 273.798 141.313 272.584 142.691C272.07 143.188 271.611 143.746 271.218 144.354C270.879 144.999 270.727 145.814 270.177 146.248C269.9 146.426 269.585 146.529 269.261 146.548C268.937 146.567 268.613 146.501 268.319 146.356C267.715 146.119 267.174 145.721 266.57 145.469C266.182 145.311 265.778 145.201 265.366 145.138V145.138C263.568 144.859 261.587 145.267 260.059 144.25C259.882 144.127 259.718 143.985 259.568 143.827C258.971 143.212 258.539 142.443 258.315 141.597C258.202 141.254 258.162 140.889 258.197 140.528C258.267 140.198 258.406 139.888 258.603 139.621C258.8 139.353 259.05 139.134 259.337 138.98C259.42 138.928 259.504 138.877 259.592 138.83C261.067 138.02 263.116 137.829 263.887 136.249C264.624 134.752 263.71 132.93 262.59 131.722C262.059 131.154 261.43 130.509 261.504 129.714C261.573 129.012 262.167 128.521 262.663 128.052C264.068 126.717 265.014 124.934 265.356 122.977C265.487 122.373 265.477 121.744 265.327 121.145C265.174 120.715 264.964 120.31 264.703 119.942L263.111 117.464C262.619 116.589 261.948 115.841 261.145 115.275C260.482 114.857 259.72 114.713 259.052 114.3C258.798 114.153 258.584 113.94 258.433 113.68C258.349 113.535 258.32 113.361 258.354 113.195C258.438 112.782 258.846 112.581 259.253 112.462C260.309 112.14 261.412 112.03 262.506 112.137C262.853 112.214 263.211 112.214 263.558 112.137C263.73 112.088 263.879 111.977 263.979 111.822C264.079 111.668 264.123 111.481 264.103 111.295C265.312 110.965 266.457 111.956 267.341 112.885C268.226 113.814 269.307 114.831 270.555 114.568C271.002 114.475 271.415 114.207 271.867 114.155C272.319 114.103 272.879 114.413 272.85 114.893C272.82 115.373 272.25 115.683 272.299 116.148C272.329 116.308 272.398 116.458 272.501 116.581C273.068 117.402 273.741 118.135 274.501 118.76C274.501 117.846 274.501 116.927 274.501 116.013C275.483 116.272 275.842 117.593 275.729 118.662C275.616 119.73 275.238 120.809 275.474 121.852C275.503 122.03 275.572 122.199 275.674 122.345C275.777 122.491 275.91 122.61 276.063 122.693C276.316 122.765 276.582 122.765 276.835 122.693C279.09 122.358 281.724 122.988 282.844 125.068L280.879 124.319L283.164 125.631C283.476 125.782 283.755 126.002 283.979 126.276C284.088 126.415 284.152 126.587 284.163 126.766C284.173 126.946 284.13 127.125 284.038 127.277C283.66 127.01 283.23 126.835 282.78 126.766C282.329 126.696 281.869 126.733 281.434 126.875V126.875Z" fill="#585268"/>
<g id="Group" opacity="0.1">
<path id="Vector_164" opacity="0.1" d="M277.105 122.575C277.358 122.646 277.624 122.646 277.876 122.575C278.097 122.544 278.319 122.523 278.545 122.507C278.053 122.475 277.559 122.49 277.071 122.554L277.105 122.575Z" fill="black"/>
<path id="Vector_165" opacity="0.1" d="M281.901 124.216L282.746 124.706L282.589 124.474L281.901 124.216Z" fill="black"/>
<path id="Vector_166" opacity="0.1" d="M275.562 118.641C275.562 118.042 275.562 117.438 275.562 116.834C275.477 116.609 275.344 116.408 275.174 116.245C275.004 116.082 274.8 115.962 274.579 115.895V117.712C274.888 118.043 275.216 118.353 275.562 118.641V118.641Z" fill="black"/>
<path id="Vector_167" opacity="0.1" d="M282.883 126.694C283.317 126.772 283.73 126.948 284.092 127.21C284.179 127.09 284.222 126.942 284.215 126.792C283.783 126.659 283.329 126.625 282.883 126.694Z" fill="black"/>
<path id="Vector_168" opacity="0.1" d="M269.405 146.279C268.801 146.042 268.26 145.644 267.656 145.391C267.268 145.234 266.864 145.123 266.452 145.061C264.654 144.782 262.673 145.19 261.145 144.173C260.968 144.049 260.804 143.908 260.654 143.75C260.057 143.135 259.625 142.366 259.401 141.52C259.288 141.176 259.248 140.812 259.283 140.451C259.353 140.121 259.492 139.811 259.689 139.543C259.886 139.276 260.136 139.057 260.423 138.902C260.506 138.851 260.59 138.799 260.678 138.753C262.177 137.942 264.201 137.751 264.973 136.172C265.71 134.675 264.796 132.852 263.676 131.644C263.145 131.077 262.516 130.431 262.59 129.636C262.659 128.934 263.253 128.444 263.749 127.974C265.154 126.64 266.1 124.856 266.442 122.9C266.573 122.295 266.563 121.667 266.413 121.067C266.26 120.637 266.05 120.232 265.789 119.864L264.197 117.387C263.705 116.512 263.034 115.764 262.231 115.198C261.568 114.78 260.806 114.635 260.138 114.222C259.884 114.076 259.67 113.862 259.519 113.603C259.434 113.457 259.406 113.284 259.44 113.118C259.524 112.705 259.956 112.503 260.339 112.384C260.981 112.196 261.64 112.081 262.305 112.044C261.311 111.982 260.314 112.097 259.357 112.384C258.973 112.503 258.541 112.705 258.457 113.118C258.424 113.284 258.452 113.457 258.536 113.603C258.687 113.862 258.901 114.076 259.155 114.222C259.823 114.635 260.585 114.78 261.248 115.198C262.051 115.764 262.723 116.512 263.214 117.387L264.806 119.864C265.067 120.232 265.277 120.637 265.43 121.067C265.58 121.667 265.59 122.295 265.459 122.9C265.117 124.856 264.171 126.64 262.767 127.974C262.275 128.444 261.676 128.934 261.607 129.636C261.533 130.431 262.162 131.077 262.693 131.644C263.813 132.852 264.727 134.675 263.99 136.172C263.219 137.746 261.194 137.937 259.696 138.753C259.607 138.799 259.524 138.851 259.44 138.902C259.154 139.057 258.903 139.276 258.706 139.543C258.509 139.811 258.37 140.121 258.3 140.451C258.265 140.812 258.306 141.176 258.418 141.52C258.642 142.366 259.074 143.135 259.671 143.75C259.821 143.908 259.986 144.049 260.162 144.173C261.691 145.205 263.671 144.782 265.469 145.061C265.881 145.123 266.285 145.234 266.673 145.391C267.277 145.644 267.818 146.042 268.422 146.279C268.861 146.468 269.345 146.511 269.808 146.403C269.671 146.372 269.536 146.33 269.405 146.279V146.279Z" fill="black"/>
<path id="Vector_169" opacity="0.1" d="M271.616 114.449C271.919 114.368 272.216 114.266 272.506 114.145C272.332 114.055 272.138 114.018 271.946 114.036C271.529 114.14 271.118 114.271 270.717 114.429C271.012 114.505 271.319 114.513 271.616 114.449V114.449Z" fill="black"/>
<path id="Vector_170" opacity="0.1" d="M263.568 112.044C263.916 112.113 264.274 112.104 264.619 112.018C264.79 111.97 264.939 111.859 265.039 111.706C265.139 111.552 265.183 111.367 265.165 111.182C264.842 111.094 264.504 111.094 264.182 111.182C264.202 111.367 264.158 111.554 264.058 111.709C263.958 111.863 263.808 111.975 263.636 112.023C263.603 112.034 263.568 112.043 263.533 112.049L263.568 112.044Z" fill="black"/>
</g>
<path id="Vector_171" d="M246.517 120.468C244.684 121.909 241.76 122.533 239.073 122.74C236.971 122.915 234.86 122.915 232.758 122.74L228.027 120.871C228.027 120.871 228.41 120.071 229.058 119.013C230.351 116.907 232.699 113.773 235.151 113.902C238.837 114.093 242.709 114.284 243.077 114.284C243.446 114.284 250.63 117.242 246.517 120.468Z" fill="#FDC2CC"/>
</g>
<g id="mamahead">
<path id="Vector_172" opacity="0.1" d="M233.958 83.2855C246.373 83.2855 256.438 72.712 256.438 59.6688C256.438 46.6257 246.373 36.0521 233.958 36.0521C221.542 36.0521 211.477 46.6257 211.477 59.6688C211.477 72.712 221.542 83.2855 233.958 83.2855Z" fill="black"/>
<path id="Vector_173" d="M233.958 82.2531C246.373 82.2531 256.438 71.6796 256.438 58.6364C256.438 45.5933 246.373 35.0197 233.958 35.0197C221.542 35.0197 211.477 45.5933 211.477 58.6364C211.477 71.6796 221.542 82.2531 233.958 82.2531Z" fill="#FDC2CC"/>
<path id="Vector_174" d="M230.587 14.4796C227.088 14.4125 223.477 14.3712 220.268 15.7857C213.816 18.5887 210.775 26.0789 206.873 32.1186C203.637 37.1237 199.507 41.4207 194.712 44.771C192.451 46.3196 189.827 48.0231 189.282 50.8106C188.702 53.7582 190.707 56.489 191.739 59.2817C193.925 65.2233 191.739 71.805 190.446 78.0305C189.842 81.0205 189.453 84.0541 189.282 87.1055C189.141 88.5184 189.229 89.9461 189.542 91.3281C190.525 94.9726 194.24 97.6052 194.269 101.394C194.269 103.975 192.54 106.412 193.046 108.921C193.699 112.126 197.404 113.283 200.475 113.835C201.211 114.047 201.99 114.022 202.711 113.763C203.203 113.515 203.605 113.04 204.107 112.777C205.812 111.889 207.703 113.763 209.61 113.727C212.003 113.68 213.349 110.712 213.408 108.198C213.467 105.684 212.829 103.036 213.688 100.713C214.833 97.6156 218.111 96.1444 220.877 94.5183C223.938 92.7167 226.852 90.115 227.756 86.5583C228.321 84.3593 228.066 82.0311 227.84 79.7701C227.496 76.3012 227.226 72.8168 227.039 69.3375C226.548 60.4586 233.569 53.0613 242.006 53.7531H242.163C244.62 53.9647 247.519 54.2125 249.254 52.3335C249.942 51.585 250.379 50.5525 251.219 50.0363C252.861 49.0555 255.116 50.4545 256.767 49.4891C258.059 48.7303 258.335 46.9081 258.133 45.3594C257.932 43.8108 257.416 42.2622 257.691 40.7445C258.084 38.5919 259.946 37.0536 260.639 34.9836C261.435 32.6245 260.575 29.9867 259.337 27.8495C255.372 20.9788 247.298 15.5998 239.731 14.8771C236.69 14.5674 233.638 14.5313 230.587 14.4796Z" fill="#865A61"/>
<path id="Vector_175" d="M258.305 51.332C258.472 49.5201 259.175 47.8115 259.543 46.0305C259.907 44.3077 259.957 42.5282 259.691 40.7858C259.542 39.5273 259.096 38.3278 258.394 37.2962C257.902 36.651 256.428 35.2314 255.568 35.8715C255.077 36.238 254.944 38.3596 254.748 38.9688C254.058 41.0147 253.134 42.9648 251.996 44.7762C254.426 48.2988 255.882 52.4583 256.204 56.7955C256.526 61.1328 255.701 65.4792 253.82 69.355C251.94 73.2308 249.076 76.4854 245.546 78.7597C242.016 81.0339 237.956 82.2393 233.815 82.2428C233.279 82.2428 232.749 82.217 232.223 82.1757C231.732 83.0739 231.285 83.9824 230.832 84.891C230.299 85.8135 229.938 86.8352 229.771 87.9005C229.73 88.9189 229.879 89.9359 230.208 90.8945C231.123 94.0481 232.387 97.0782 233.972 99.9231C234.525 100.806 234.979 101.754 235.324 102.747C235.604 103.702 235.653 104.724 236.016 105.643C236.832 107.708 238.965 108.74 240.93 109.602C242.105 110.118 243.333 110.634 244.601 110.526C244.72 110.535 244.839 110.519 244.951 110.477C245.063 110.435 245.166 110.369 245.252 110.283C245.339 110.197 245.407 110.093 245.453 109.977C245.499 109.862 245.522 109.737 245.52 109.612C245.588 109.071 245.534 108.521 245.364 108.006C245.193 107.49 244.91 107.024 244.537 106.644C246.204 107.193 247.953 107.412 249.696 107.289C249.852 107.324 250.014 107.31 250.163 107.25C250.312 107.19 250.441 107.087 250.535 106.952C250.63 106.817 250.685 106.656 250.695 106.489C250.705 106.322 250.668 106.155 250.591 106.009C250.138 104.062 249.448 102.185 248.537 100.424C247.642 98.6893 246.502 96.6709 247.318 94.9003C247.785 93.8679 248.768 93.2898 249.662 92.6755C252.684 90.6106 255.362 87.2449 255.126 83.4611C254.998 81.3962 254.006 79.4295 253.947 77.3491C253.794 72.2748 258.993 68.6458 259.779 63.6334C260.403 59.5347 257.927 55.4772 258.305 51.332Z" fill="#865A61"/>
</g>
<path id="Vector_176" opacity="0.1" d="M229.058 118.997C231.977 119.627 235.53 121.026 239.073 122.735C236.971 122.909 234.86 122.909 232.759 122.735L228.027 120.866C228.027 120.866 228.41 120.055 229.058 118.997Z" fill="black"/>
<path id="Vector_177" opacity="0.1" d="M265.371 145.138C263.572 144.859 261.592 145.267 260.064 144.25C259.887 144.127 259.723 143.985 259.573 143.827H259.499C257.61 143.83 255.739 143.441 253.993 142.684C252.247 141.926 250.66 140.814 249.323 139.412C247.987 138.009 246.926 136.344 246.203 134.511C245.479 132.677 245.107 130.712 245.107 128.728C245.104 127.841 245.18 126.957 245.333 126.085C250.369 129.043 254.453 132.083 255.239 133.57C256.401 135.527 257.769 137.34 259.317 138.975C260.688 140.523 262.157 142.01 263.415 143.254C264.162 143.982 264.835 144.627 265.371 145.138Z" fill="black"/>
<path id="hand" d="M264.504 143.343C264.504 143.343 255.536 135.213 253.079 130.567C250.622 125.921 216.104 106.176 220.526 121.146C224.948 136.116 240.181 137.536 240.181 137.536C240.181 137.536 245.095 143.343 245.586 146.183C246.077 149.022 247.797 153.151 247.797 153.151L256.028 157.023L259.836 156.12C259.836 156.12 268.803 150.958 264.504 143.343Z" fill="#FDC2CC"/>
<path id="Vector_178" opacity="0.1" d="M248.974 156.149C248.974 156.149 263.469 164.795 264.943 144.534L268.629 145.825L264.943 159.504L258.678 164.279C258.678 164.279 249.957 160.021 248.974 156.149Z" fill="black"/>
<path id="Vector_179" d="M249.465 156.665C249.465 156.665 263.961 165.312 265.435 145.05L269.12 146.341L265.435 160.021L259.17 164.795C259.17 164.795 250.448 160.537 249.465 156.665Z" fill="#D39999"/>
<g id="Group_2" opacity="0.1">
<path id="Vector_180" opacity="0.1" d="M197.963 101.988C197.934 98.199 194.224 95.5663 193.237 91.9218C193.084 91.3471 192.991 90.757 192.956 90.1616C192.847 91.4441 192.942 92.7368 193.237 93.9867C194.141 97.3163 197.305 99.8044 197.87 103.103C197.933 102.735 197.964 102.362 197.963 101.988V101.988Z" fill="black"/>
<path id="Vector_181" opacity="0.1" d="M213.305 114.32C211.399 114.356 209.507 112.483 207.802 113.37C207.31 113.634 206.917 114.109 206.406 114.356C205.685 114.616 204.906 114.641 204.17 114.429C201.109 113.876 197.414 112.725 196.751 109.545C196.625 110.217 196.625 110.908 196.751 111.579C197.404 114.785 201.109 115.941 204.18 116.494C204.916 116.706 205.695 116.681 206.416 116.421C206.907 116.173 207.31 115.699 207.811 115.435C209.517 114.547 211.408 116.421 213.315 116.385C215.708 116.339 217.054 113.37 217.113 110.856C217.113 110.34 217.113 109.824 217.079 109.308C216.828 111.693 215.531 114.274 213.305 114.32Z" fill="black"/>
<path id="Vector_182" opacity="0.1" d="M231.461 87.1469C230.547 90.7036 227.633 93.3053 224.582 95.1069C221.816 96.7381 218.538 98.2041 217.393 101.301C216.972 102.639 216.828 104.056 216.971 105.457C217.013 104.742 217.156 104.038 217.393 103.366C218.538 100.269 221.816 98.7978 224.582 97.1717C227.643 95.3701 230.557 92.7684 231.461 89.2117C231.773 87.8613 231.878 86.4671 231.771 85.082C231.732 85.7793 231.629 86.471 231.461 87.1469V87.1469Z" fill="black"/>
<path id="Vector_183" opacity="0.1" d="M258.364 50.4184C257.18 50.3255 255.946 50.0364 254.924 50.6352C254.064 51.1514 253.627 52.1838 252.959 52.9324C251.224 54.8114 248.35 54.5636 245.868 54.3519H245.711C237.274 53.6602 230.262 61.0627 230.744 69.9364C230.744 70.0035 230.744 70.0757 230.744 70.1429C230.861 68.2072 231.342 66.3151 232.158 64.5756C232.975 62.8361 234.111 61.2836 235.502 60.0076C236.892 58.7317 238.509 57.7574 240.26 57.1411C242.01 56.5248 243.86 56.2787 245.701 56.4168H245.859C248.315 56.6284 251.214 56.8762 252.949 54.9972C253.637 54.2487 254.074 53.2163 254.915 52.7001C255.897 52.1013 257.15 52.3903 258.354 52.4833C259.299 54.9509 259.839 57.5691 259.951 60.2264C259.951 59.8909 259.976 59.5554 259.976 59.194C259.976 56.1876 259.429 53.2089 258.364 50.4184V50.4184Z" fill="black"/>
<path id="Vector_184" opacity="0.1" d="M196.353 66.4933C196.5 64.2488 196.194 61.9969 195.453 59.8857C194.677 57.7744 193.345 55.7044 192.997 53.5518C192.461 56.4684 194.441 59.1682 195.453 61.9506C195.979 63.4058 196.282 64.9388 196.353 66.4933V66.4933Z" fill="black"/>
<path id="Vector_185" opacity="0.1" d="M263.533 44.6472C263.488 45.3125 263.396 45.9733 263.258 46.6242C262.889 48.4052 262.187 50.1138 262.02 51.9257C261.961 52.5712 261.961 53.2212 262.02 53.8667C262.206 52.1013 262.88 50.4287 263.243 48.7046C263.528 47.3742 263.625 46.0072 263.533 44.6472V44.6472Z" fill="black"/>
<path id="Vector_186" opacity="0.1" d="M263.474 64.2374C262.688 69.2498 257.489 72.8788 257.642 77.9532C257.65 78.2279 257.673 78.502 257.711 78.7739C258.33 74.3294 262.757 70.8965 263.474 66.3023C263.596 65.4702 263.613 64.6249 263.523 63.7883C263.509 63.938 263.509 64.0877 263.474 64.2374Z" fill="black"/>
<path id="Vector_187" opacity="0.1" d="M264.369 35.567C263.904 36.6731 263.31 37.7136 262.6 38.6643C262.803 39.08 262.968 39.5157 263.091 39.9651C263.609 39.2408 264.034 38.4475 264.354 37.606C264.662 36.6426 264.739 35.6144 264.58 34.612C264.537 34.9363 264.466 35.256 264.369 35.567Z" fill="black"/>
<path id="Vector_188" opacity="0.1" d="M258.762 85.5673C258.325 88.7265 255.971 91.4779 253.357 93.2795C252.463 93.8938 251.48 94.4926 251.013 95.5043C250.69 96.2657 250.643 97.1249 250.88 97.9202C250.915 97.7995 250.96 97.6821 251.013 97.5692C251.48 96.5368 252.463 95.9586 253.357 95.3443C256.379 93.2795 259.057 89.9138 258.821 86.1299C258.811 85.9389 258.787 85.7531 258.762 85.5673Z" fill="black"/>
<path id="Vector_189" opacity="0.1" d="M248.934 110.903C248.752 111.049 248.53 111.129 248.301 111.13C247.033 111.244 245.804 110.722 244.63 110.206C242.665 109.349 240.522 108.306 239.716 106.247C239.353 105.328 239.304 104.306 239.023 103.351C238.679 102.358 238.225 101.41 237.672 100.527C236.086 97.6822 234.823 94.6521 233.908 91.4986C233.766 91.0221 233.648 90.5379 233.555 90.048C233.52 90.2184 233.491 90.3939 233.471 90.5642C233.43 91.5826 233.579 92.5996 233.908 93.5582C234.823 96.7118 236.086 99.7419 237.672 102.587C238.225 103.47 238.679 104.417 239.023 105.41C239.304 106.365 239.353 107.388 239.716 108.306C240.532 110.371 242.665 111.404 244.63 112.266C245.804 112.782 247.033 113.298 248.301 113.19C248.419 113.199 248.539 113.182 248.651 113.14C248.763 113.099 248.866 113.032 248.952 112.946C249.039 112.86 249.107 112.756 249.153 112.641C249.199 112.525 249.222 112.401 249.219 112.276C249.284 111.755 249.234 111.225 249.072 110.727C249.037 110.794 248.99 110.854 248.934 110.903V110.903Z" fill="black"/>
<path id="Vector_190" opacity="0.1" d="M254.035 107.733C253.834 107.834 253.614 107.889 253.391 107.893C251.648 108.016 249.899 107.797 248.232 107.248C248.841 107.867 249.201 108.708 249.239 109.597C250.598 109.934 251.998 110.055 253.391 109.958C253.547 109.993 253.709 109.979 253.858 109.919C254.007 109.859 254.136 109.755 254.23 109.62C254.325 109.485 254.38 109.325 254.39 109.158C254.4 108.991 254.363 108.824 254.286 108.678C254.212 108.358 254.123 108.043 254.035 107.733Z" fill="black"/>
</g>
<path id="Vector_191" opacity="0.1" d="M185.464 119.111C185.464 119.111 184.972 129.693 186.447 130.467C187.921 131.242 185.464 119.111 185.464 119.111Z" fill="black"/>
<path id="Vector_192" opacity="0.1" d="M213.349 146.986C213.841 146.986 215.806 148.019 216.052 149.18C216.298 150.342 213.349 146.986 213.349 146.986Z" fill="black"/>
<path id="Vector_193" opacity="0.1" d="M212.121 148.664C212.612 148.664 214.578 149.696 214.823 150.858C215.069 152.019 212.121 148.664 212.121 148.664Z" fill="black"/>
<path id="Vector_194" opacity="0.1" d="M216.666 153.31C217.157 153.31 219.123 154.342 219.369 155.504C219.614 156.665 216.666 153.31 216.666 153.31Z" fill="black"/>
<path id="Vector_195" opacity="0.1" d="M210.524 153.506C210.524 153.506 203.851 160.521 203.438 162.023C203.026 163.526 190.417 163.572 190.417 163.572L189.557 156.345C189.557 156.345 189.508 156.154 189.464 155.865C192.947 154.926 204.244 150.543 210.966 152.097C211.007 152.352 210.988 152.613 210.91 152.859C210.833 153.104 210.701 153.326 210.524 153.506V153.506Z" fill="black"/>
<path id="hand2" d="M180.137 162.385C180.137 162.385 186.569 156.407 188.535 156.536C190.5 156.665 214.455 145.954 216.052 157.956C217.649 169.958 185.464 170.603 185.464 170.603L180.55 172.539C180.55 172.539 176.452 163.159 180.137 162.385Z" fill="#FDC2CC"/>
<path id="Vector_196" d="M178.255 163.247C178.255 163.247 181.204 158.947 182.103 164.192C183.002 169.436 184.358 175.894 184.358 175.894L177.764 172.451L178.255 163.247Z" fill="#D39999"/>
<path id="Vector_197" opacity="0.1" d="M451.267 346.564C463.422 346.564 473.276 344.976 473.276 343.018C473.276 341.059 463.422 339.471 451.267 339.471C439.112 339.471 429.259 341.059 429.259 343.018C429.259 344.976 439.112 346.564 451.267 346.564Z" fill="#6C63FF"/>
<path id="Vector_198" opacity="0.1" d="M389.143 412.593C408.139 412.593 423.539 410.111 423.539 407.049C423.539 403.987 408.139 401.504 389.143 401.504C370.146 401.504 354.747 403.987 354.747 407.049C354.747 410.111 370.146 412.593 389.143 412.593Z" fill="#6C63FF"/>
<path id="Vector_199" opacity="0.1" d="M482.504 434C507.631 434 528 430.716 528 426.665C528 422.613 507.631 419.329 482.504 419.329C457.377 419.329 437.008 422.613 437.008 426.665C437.008 430.716 457.377 434 482.504 434Z" fill="#6C63FF"/>
<path id="Vector_200" opacity="0.1" d="M34.3961 355.815C53.3926 355.815 68.7922 353.332 68.7922 350.27C68.7922 347.209 53.3926 344.726 34.3961 344.726C15.3997 344.726 0 347.209 0 350.27C0 353.332 15.3997 355.815 34.3961 355.815Z" fill="#6C63FF"/>
<path id="Vector_201" d="M433.912 308.994C433.912 308.994 430.801 324.222 444.648 326.029L445.508 324.336C445.508 324.336 434.772 313.733 433.912 308.994Z" fill="#6C63FF"/>
<path id="Vector_202" d="M449.911 324.217L446.692 324.935L446.368 325.012C446.368 325.012 437.779 317.682 437.887 301.323C439.038 303.734 440.412 306.02 441.99 308.148C445.395 312.876 449.248 319.21 449.911 324.217Z" fill="#6C63FF"/>
<path id="Vector_203" d="M451.002 325.786C450.748 325.96 450.461 326.072 450.16 326.113C449.86 326.154 449.555 326.124 449.267 326.024C440.997 323.995 443.793 295.686 443.793 295.686C444.25 295.913 444.776 299.511 446.653 304.162C449.99 312.329 453.67 323.737 451.002 325.786Z" fill="#6C63FF"/>
<path id="Vector_204" d="M469.34 308.994C469.34 308.994 469.88 324.222 456.029 326.029L455.169 324.336C455.169 324.336 468.485 313.733 469.34 308.994Z" fill="#6C63FF"/>
<path id="Vector_205" d="M465.37 301.323C465.473 317.682 454.314 325.012 454.314 325.012L453.989 324.935L450.771 324.217C451.405 319.194 455.287 312.861 458.687 308.148C460.614 305.569 462.861 303.273 465.37 301.323V301.323Z" fill="#6C63FF"/>
<path id="Vector_206" d="M453.94 324.305C453.442 324.941 452.812 325.448 452.098 325.786V325.786C451.882 325.891 451.656 325.971 451.424 326.024C449.385 326.54 448.678 324.992 448.796 322.364C448.987 317.718 451.778 309.614 454.284 303.564C456.088 299.207 459.036 295.903 459.473 295.686C459.463 295.686 459.34 317.728 453.94 324.305Z" fill="#6C63FF"/>
<path id="Vector_207" d="M451.626 285.759C451.626 285.759 442.393 320.16 450.338 325.348C458.284 330.536 453.67 288.805 451.626 285.759Z" fill="#6C63FF"/>
<path id="Vector_208" opacity="0.1" d="M433.912 308.994C433.912 308.994 430.801 324.222 444.648 326.029L445.508 324.336C445.508 324.336 434.772 313.733 433.912 308.994Z" fill="black"/>
<path id="Vector_209" opacity="0.1" d="M449.911 324.217L446.692 324.935L446.368 325.012C446.368 325.012 437.779 317.682 437.887 301.323C439.038 303.734 440.412 306.02 441.99 308.148C445.395 312.876 449.248 319.21 449.911 324.217Z" fill="black"/>
<path id="Vector_210" opacity="0.1" d="M451.002 325.786C450.748 325.96 450.461 326.072 450.16 326.113C449.86 326.154 449.555 326.124 449.267 326.024C440.997 323.995 443.793 295.686 443.793 295.686C444.25 295.913 444.776 299.511 446.653 304.162C449.99 312.329 453.67 323.737 451.002 325.786Z" fill="black"/>
<path id="Vector_211" opacity="0.1" d="M469.34 308.994C469.34 308.994 469.88 324.222 456.029 326.029L455.169 324.336C455.169 324.336 468.485 313.733 469.34 308.994Z" fill="black"/>
<path id="Vector_212" opacity="0.1" d="M465.37 301.323C465.473 317.682 454.314 325.012 454.314 325.012L453.989 324.935L450.771 324.217C451.405 319.194 455.287 312.861 458.687 308.148C460.614 305.569 462.861 303.273 465.37 301.323V301.323Z" fill="black"/>
<path id="Vector_213" opacity="0.1" d="M453.94 324.305C453.442 324.941 452.812 325.448 452.098 325.786V325.786C451.882 325.891 451.656 325.971 451.424 326.024C449.385 326.54 448.678 324.992 448.796 322.364C448.987 317.718 451.778 309.614 454.284 303.564C456.088 299.207 459.036 295.903 459.473 295.686C459.463 295.686 459.34 317.728 453.94 324.305Z" fill="black"/>
<path id="Vector_214" opacity="0.1" d="M451.626 285.759C451.626 285.759 442.393 320.16 450.338 325.348C458.284 330.536 453.67 288.805 451.626 285.759Z" fill="black"/>
<path id="Vector_215" d="M433.912 308.994C433.912 308.994 432.089 324.222 445.936 326.029L446.796 324.336C446.796 324.336 434.772 313.733 433.912 308.994Z" fill="#6C63FF"/>
<path id="Vector_216" d="M451.213 324.217L447.995 324.935L447.67 325.012C447.67 325.012 437.794 317.682 437.902 301.323C437.902 301.323 440.432 304.173 443.307 308.148C446.688 312.876 450.555 319.21 451.213 324.217Z" fill="#6C63FF"/>
<path id="Vector_217" opacity="0.1" d="M451.213 324.217L447.995 324.935C444.943 322.121 443.73 314.771 443.292 308.148C446.688 312.876 450.555 319.21 451.213 324.217Z" fill="black"/>
<path id="Vector_218" d="M452.289 325.786C452.036 325.96 451.748 326.072 451.448 326.113C451.148 326.154 450.842 326.124 450.555 326.024C442.285 323.995 443.793 295.686 443.793 295.686C444.25 295.913 446.039 299.511 447.941 304.162C451.277 312.329 454.943 323.737 452.289 325.786Z" fill="#6C63FF"/>
<path id="Vector_219" d="M469.34 308.994C469.34 308.994 471.168 324.222 457.316 326.029L456.461 324.336C456.461 324.336 468.485 313.733 469.34 308.994Z" fill="#6C63FF"/>
<path id="Vector_220" d="M465.37 301.323C465.473 317.682 455.601 325.012 455.601 325.012L455.277 324.935L452.058 324.217C452.697 319.194 456.574 312.861 459.974 308.148C462.839 304.173 465.37 301.323 465.37 301.323Z" fill="#6C63FF"/>
<path id="Vector_221" opacity="0.1" d="M459.974 308.148C459.562 314.342 458.5 321.125 455.871 324.305C455.691 324.532 455.492 324.743 455.277 324.935L452.058 324.217C452.687 319.21 456.574 312.876 459.974 308.148Z" fill="black"/>
<path id="Vector_222" d="M455.228 324.305C454.731 324.942 454.1 325.449 453.385 325.786V325.786C453.167 325.89 452.94 325.97 452.707 326.024C450.673 326.54 449.96 324.992 450.078 322.364C450.27 317.718 453.061 309.614 455.567 303.564C457.37 299.207 459.006 295.903 459.468 295.686C459.463 295.686 460.633 317.728 455.228 324.305Z" fill="#6C63FF"/>
<path id="Vector_223" opacity="0.1" d="M452.289 325.787C451.821 325.786 451.364 325.632 450.982 325.348C447.091 322.803 447.012 313.248 447.941 304.183C451.277 312.329 454.943 323.737 452.289 325.787Z" fill="black"/>
<path id="Vector_224" opacity="0.1" d="M455.228 324.305C454.781 325.337 454.176 325.854 453.385 325.786C452.987 325.733 452.607 325.583 452.274 325.348C451.265 324.617 450.497 323.574 450.078 322.364C450.27 317.718 453.061 309.614 455.567 303.564C456.456 311.983 456.751 320.862 455.228 324.305Z" fill="black"/>
<path id="Vector_225" d="M451.626 285.759C451.626 285.759 443.685 320.16 451.626 325.348C459.566 330.536 453.67 288.805 451.626 285.759Z" fill="#6C63FF"/>
<path id="Vector_226" d="M466.873 323.66H433.809V329.41H438.85L438.978 330.087L440.997 341.252H460.22L462.24 330.087L462.362 329.41H466.873V323.66Z" fill="#4B4770"/>
<path id="Vector_227" opacity="0.1" d="M466.873 323.66H433.809V329.41H438.85L438.978 330.087L440.997 341.252H460.22L462.24 330.087L462.362 329.41H466.873V323.66Z" fill="black"/>
<path id="Vector_228" d="M464.082 327.041L463.532 330.087L461.507 341.252H442.285L440.265 330.087L439.71 327.041H464.082Z" fill="#4B4770"/>
<path id="Vector_229" opacity="0.1" d="M464.082 327.041L463.532 330.087H440.265L439.71 327.041H464.082Z" fill="black"/>
<path id="Vector_230" d="M468.161 323.66H435.096V329.41H468.161V323.66Z" fill="#4B4770"/>
<path id="Vector_231" d="M53.6334 289.677C53.162 290.356 52.7847 291.102 52.513 291.892C52.4442 292.083 52.3754 292.305 52.3067 292.517C52.1827 292.455 52.0525 292.408 51.9185 292.377C51.3459 292.224 50.7534 292.17 50.1643 292.217C50.1643 291.98 50.1938 291.701 50.1987 291.458C50.2724 288.738 49.9677 284.949 47.4961 286.554C45.1277 288.103 46.818 290.684 48.3462 292.336C48.4789 292.481 48.6115 292.615 48.7393 292.744C47.3438 293.776 47.0785 296.218 46.8475 298.752C46.6166 301.287 44.5675 304.059 43.2064 305.639C43.0689 305.799 42.946 305.943 42.8232 306.078C42.2767 305.618 41.6439 305.286 40.9664 305.102C40.289 304.917 39.5821 304.886 38.8922 305.009C38.8381 304.787 38.7792 304.555 38.7104 304.307C37.5851 300.11 35.3052 292.883 32.3864 291.335C32.5092 291.174 32.637 291.009 32.7697 290.818C34.0079 289.115 35.4034 286.585 33.3446 285.94C31.2857 285.295 31.099 288.134 31.212 290.261C31.212 290.524 31.2513 290.777 31.271 291.014C30.861 291.034 30.4592 291.141 30.0899 291.329C29.7207 291.517 29.3919 291.783 29.1237 292.109L28.8043 291.711C27.1336 289.646 24.0724 286.363 23.1437 288.846C22.2838 291.154 24.9765 294.158 26.8732 295.898L26.9911 296.006C25.7185 301.437 31.2759 305.861 34.2684 307.791L34.6565 308.044C30.529 313.15 27.9788 322.731 27.9788 322.731L39.5408 324.899C39.5408 324.899 47.2013 317.95 46.2185 311.431H46.2972C53.9577 309.815 55.6971 301.235 54.508 296.146L54.6407 296.084C56.0352 295.485 57.2577 294.515 58.1884 293.27C60.3259 290.137 55.8347 286.606 53.6334 289.677Z" fill="#6C63FF"/>
<path id="Vector_232" opacity="0.1" d="M53.6334 289.677C53.162 290.356 52.7847 291.102 52.513 291.892C52.4442 292.083 52.3754 292.305 52.3067 292.517C52.1827 292.455 52.0525 292.408 51.9185 292.377C51.3459 292.224 50.7534 292.17 50.1643 292.217C50.1643 291.98 50.1938 291.701 50.1987 291.458C50.2724 288.738 49.9677 284.949 47.4961 286.554C45.1277 288.103 46.818 290.684 48.3462 292.336C48.4789 292.481 48.6115 292.615 48.7393 292.744C47.3438 293.776 47.0785 296.218 46.8475 298.752C46.6166 301.287 44.5675 304.059 43.2064 305.639C43.0689 305.799 42.946 305.943 42.8232 306.078C42.2767 305.618 41.6439 305.286 40.9664 305.102C40.289 304.917 39.5821 304.886 38.8922 305.009C38.8381 304.787 38.7792 304.555 38.7104 304.307C37.5851 300.11 35.3052 292.883 32.3864 291.335C32.5092 291.174 32.637 291.009 32.7697 290.818C34.0079 289.115 35.4034 286.585 33.3446 285.94C31.2857 285.295 31.099 288.134 31.212 290.261C31.212 290.524 31.2513 290.777 31.271 291.014C30.861 291.034 30.4592 291.141 30.0899 291.329C29.7207 291.517 29.3919 291.783 29.1237 292.109L28.8043 291.711C27.1336 289.646 24.0724 286.363 23.1437 288.846C22.2838 291.154 24.9765 294.158 26.8732 295.898L26.9911 296.006C25.7185 301.437 31.2759 305.861 34.2684 307.791L34.6565 308.044C30.529 313.15 27.9788 322.731 27.9788 322.731L39.5408 324.899C39.5408 324.899 47.2013 317.95 46.2185 311.431H46.2972C53.9577 309.815 55.6971 301.235 54.508 296.146L54.6407 296.084C56.0352 295.485 57.2577 294.515 58.1884 293.27C60.3259 290.137 55.8347 286.606 53.6334 289.677Z" fill="black"/>
<path id="Vector_233" d="M30.6273 293.177L29.276 297.307C29.276 297.307 28.5242 296.75 27.5759 295.872C25.6792 294.132 22.9864 291.128 23.8463 288.821C24.775 286.338 27.8363 289.616 29.507 291.686C30.1801 292.537 30.6273 293.177 30.6273 293.177Z" fill="#6C63FF"/>
<path id="Vector_234" d="M33.4772 290.818C33.066 291.384 32.6265 291.927 32.1604 292.444C32.0452 291.721 31.9648 290.992 31.9196 290.261C31.8066 288.134 32.0228 285.31 34.0521 285.94C36.0815 286.57 34.7155 289.104 33.4772 290.818Z" fill="#6C63FF"/>
<path id="Vector_235" d="M50.9063 291.458C50.8669 292.826 50.7392 293.921 50.7392 293.921C50.1434 293.434 49.5802 292.904 49.0538 292.336C47.5256 290.674 45.8353 288.103 48.2037 286.554C50.6753 284.949 50.98 288.753 50.9063 291.458Z" fill="#6C63FF"/>
<path id="Vector_236" d="M58.8911 293.255C57.9604 294.5 56.7379 295.469 55.3433 296.068C54.957 296.247 54.5597 296.399 54.1542 296.522L52.5622 294.174C52.7307 293.398 52.9507 292.636 53.2206 291.892C53.4923 291.102 53.8695 290.356 54.3409 289.677C56.5423 286.606 61.0334 290.137 58.8911 293.255Z" fill="#6C63FF"/>
<path id="Vector_237" opacity="0.1" d="M29.5069 291.711C30.1801 292.537 30.6273 293.177 30.6273 293.177L29.276 297.307C29.276 297.307 28.5242 296.75 27.5759 295.872C27.7866 294.541 28.3101 293.287 29.0991 292.222C29.2318 292.057 29.3743 291.877 29.5069 291.711Z" fill="black"/>
<path id="Vector_238" opacity="0.1" d="M33.4772 290.818C33.0661 291.384 32.6265 291.927 32.1604 292.444C32.0452 291.721 31.9648 290.992 31.9196 290.261C32.4816 290.271 33.0264 290.466 33.4772 290.818V290.818Z" fill="black"/>
<path id="Vector_239" d="M40.1255 307.301L36.7596 308.85C36.7596 308.85 36.0275 308.478 34.971 307.786C31.438 305.505 24.3377 299.759 29.0745 292.986C33.8114 286.214 37.8062 298.36 39.3934 304.302C39.87 306.083 40.1255 307.301 40.1255 307.301Z" fill="#6C63FF"/>
<path id="Vector_240" opacity="0.1" d="M49.0538 292.336C49.5432 291.808 50.2052 291.494 50.9062 291.458C50.8669 292.826 50.7392 293.921 50.7392 293.921C50.1434 293.434 49.5802 292.904 49.0538 292.336V292.336Z" fill="black"/>
<path id="Vector_241" opacity="0.1" d="M55.3433 296.068C54.957 296.247 54.5597 296.399 54.1542 296.522L52.5622 294.174C52.7307 293.398 52.9507 292.636 53.2206 291.892C54.2476 292.522 55.0043 294.091 55.3433 296.068Z" fill="black"/>
<path id="Vector_242" d="M46.9998 311.415L46.4348 311.518C35.1676 313.315 42.72 306.929 42.72 306.929C42.72 306.929 43.2114 306.413 43.914 305.639C45.2751 304.059 47.3192 301.303 47.5551 298.752C47.9089 294.917 48.3167 291.319 52.6261 292.377C56.8568 293.399 57.6675 309.17 46.9998 311.415Z" fill="#6C63FF"/>
<path id="Vector_243" d="M46.7885 340.886H25.2615V346.832H46.7885V340.886Z" fill="#D4DFEC"/>
<path id="Vector_244" d="M49.9677 321.554H21.8415V342.305H49.9677V321.554Z" fill="#D4DFEC"/>
<path id="Vector_245" opacity="0.1" d="M46.7885 340.886H25.2615V346.832H46.7885V340.886Z" fill="black"/>
<path id="Vector_246" opacity="0.1" d="M49.9677 321.554H21.8415V342.305H49.9677V321.554Z" fill="black"/>
<path id="Vector_247" d="M48.2037 340.886H26.6766V346.832H48.2037V340.886Z" fill="#D4DFEC"/>
<path id="Vector_248" opacity="0.1" d="M39.3934 304.307C39.8847 306.083 40.1255 307.301 40.1255 307.301L36.7596 308.85C36.7596 308.85 36.0275 308.478 34.971 307.786C36.2879 306.041 37.7718 304.715 39.3934 304.307Z" fill="black"/>
<path id="Vector_249" opacity="0.1" d="M46.9998 311.415L46.4348 311.518C35.1676 313.315 42.72 306.929 42.72 306.929C42.72 306.929 43.2114 306.413 43.914 305.639C46.0171 307.404 46.8868 309.402 46.9998 311.415Z" fill="black"/>
<path id="Vector_250" d="M28.6814 322.731C28.6814 322.731 34.9907 298.985 43.8403 306.315C52.6899 313.645 40.2435 324.899 40.2435 324.899L28.6814 322.731Z" fill="#6C63FF"/>
<path id="Vector_251" opacity="0.1" d="M31.8655 297.457C32.2563 297.457 32.5731 297.124 32.5731 296.713C32.5731 296.303 32.2563 295.97 31.8655 295.97C31.4748 295.97 31.158 296.303 31.158 296.713C31.158 297.124 31.4748 297.457 31.8655 297.457Z" fill="black"/>
<path id="Vector_252" opacity="0.1" d="M31.8066 300.926C32.1974 300.926 32.5141 300.593 32.5141 300.182C32.5141 299.772 32.1974 299.439 31.8066 299.439C31.4158 299.439 31.099 299.772 31.099 300.182C31.099 300.593 31.4158 300.926 31.8066 300.926Z" fill="black"/>
<path id="Vector_253" opacity="0.1" d="M52.3312 298.138C52.722 298.138 53.0388 297.805 53.0388 297.395C53.0388 296.984 52.722 296.651 52.3312 296.651C51.9404 296.651 51.6236 296.984 51.6236 297.395C51.6236 297.805 51.9404 298.138 52.3312 298.138Z" fill="black"/>
<path id="Vector_254" opacity="0.1" d="M35.8162 315.917C36.207 315.917 36.5238 315.584 36.5238 315.173C36.5238 314.763 36.207 314.43 35.8162 314.43C35.4254 314.43 35.1086 314.763 35.1086 315.173C35.1086 315.584 35.4254 315.917 35.8162 315.917Z" fill="black"/>
<path id="Vector_255" opacity="0.1" d="M50.8571 303.899C51.2479 303.899 51.5647 303.566 51.5647 303.156C51.5647 302.745 51.2479 302.412 50.8571 302.412C50.4663 302.412 50.1495 302.745 50.1495 303.156C50.1495 303.566 50.4663 303.899 50.8571 303.899Z" fill="black"/>
<path id="Vector_256" opacity="0.1" d="M43.5455 311.58C43.9363 311.58 44.2531 311.248 44.2531 310.837C44.2531 310.426 43.9363 310.094 43.5455 310.094C43.1547 310.094 42.8379 310.426 42.8379 310.837C42.8379 311.248 43.1547 311.58 43.5455 311.58Z" fill="black"/>
<path id="Vector_257" opacity="0.1" d="M34.2831 298.943C34.6739 298.943 34.9907 298.611 34.9907 298.2C34.9907 297.79 34.6739 297.457 34.2831 297.457C33.8923 297.457 33.5755 297.79 33.5755 298.2C33.5755 298.611 33.8923 298.943 34.2831 298.943Z" fill="black"/>
<path id="Vector_258" opacity="0.1" d="M50.3854 300.368C50.7762 300.368 51.093 300.035 51.093 299.625C51.093 299.214 50.7762 298.882 50.3854 298.882C49.9946 298.882 49.6778 299.214 49.6778 299.625C49.6778 300.035 49.9946 300.368 50.3854 300.368Z" fill="black"/>
<path id="Vector_259" opacity="0.1" d="M47.9678 306.129C48.3586 306.129 48.6754 305.796 48.6754 305.386C48.6754 304.975 48.3586 304.642 47.9678 304.642C47.5771 304.642 47.2603 304.975 47.2603 305.386C47.2603 305.796 47.5771 306.129 47.9678 306.129Z" fill="black"/>
<path id="Vector_260" opacity="0.1" d="M40.5383 315.359C40.9291 315.359 41.2458 315.026 41.2458 314.616C41.2458 314.205 40.9291 313.872 40.5383 313.872C40.1475 313.872 39.8307 314.205 39.8307 314.616C39.8307 315.026 40.1475 315.359 40.5383 315.359Z" fill="black"/>
<path id="Vector_261" opacity="0.1" d="M39.0052 311.704C39.396 311.704 39.7128 311.371 39.7128 310.961C39.7128 310.55 39.396 310.218 39.0052 310.218C38.6144 310.218 38.2976 310.55 38.2976 310.961C38.2976 311.371 38.6144 311.704 39.0052 311.704Z" fill="black"/>
<path id="Vector_262" opacity="0.1" d="M35.3445 303.465C35.7352 303.465 36.052 303.133 36.052 302.722C36.052 302.312 35.7352 301.979 35.3445 301.979C34.9537 301.979 34.6369 302.312 34.6369 302.722C34.6369 303.133 34.9537 303.465 35.3445 303.465Z" fill="black"/>
<path id="Vector_263" opacity="0.1" d="M48.2037 340.886H26.6766V343.059H48.2037V340.886Z" fill="black"/>
<path id="Vector_264" d="M51.3829 321.554H23.2567V342.305H51.3829V321.554Z" fill="#D4DFEC"/>
<path id="Vector_265" opacity="0.1" d="M41.4817 318.704C41.8725 318.704 42.1893 318.371 42.1893 317.961C42.1893 317.55 41.8725 317.217 41.4817 317.217C41.0909 317.217 40.7741 317.55 40.7741 317.961C40.7741 318.371 41.0909 318.704 41.4817 318.704Z" fill="black"/>
<path id="Vector_266" opacity="0.1" d="M37.2362 319.633C37.627 319.633 37.9438 319.3 37.9438 318.89C37.9438 318.479 37.627 318.147 37.2362 318.147C36.8455 318.147 36.5287 318.479 36.5287 318.89C36.5287 319.3 36.8455 319.633 37.2362 319.633Z" fill="black"/>
</g>
</g>
<defs>
<clipPath id="clip0">
<rect width="528" height="434" fill="white"/>
</clipPath>
</defs>
</svg>
