<svg width="932" height="742" viewBox="0 0 932 742" fill="none" xmlns="http://www.w3.org/2000/svg">
<g id="undraw_server_push_vtms 1">
<g clip-path="url(#clip0)">
<path id="Vector" d="M340.035 335.49C340.035 335.49 380.641 356.545 365.602 376.096C350.563 395.648 324.996 353.537 324.996 350.529C324.996 347.521 340.035 335.49 340.035 335.49Z" fill="#A0616A"/>
<path id="Vector_2" d="M294.917 281.348C294.917 281.348 321.988 314.435 329.507 318.947C337.027 323.458 343.043 327.97 343.043 329.474C343.043 330.978 349.059 338.498 349.059 338.498L324.996 359.553C324.996 359.553 297.925 323.458 294.917 323.458C291.909 323.458 294.917 281.348 294.917 281.348Z" fill="#575A89"/>
<path id="Vector_3" d="M159.562 667.861L141.515 697.94L168.586 709.971L194.153 702.451L179.113 664.853L159.562 667.861Z" fill="#A0616A"/>
<path id="Vector_4" d="M210.696 340.002L195.657 482.876C195.657 482.876 162.57 550.553 162.57 604.695C162.57 658.837 150.538 673.877 150.538 673.877L188.137 679.892L228.743 547.546L296.421 424.223L276.869 300.899L243.783 288.868L210.696 340.002Z" fill="#2F2E41"/>
<path id="Vector_5" d="M156.554 696.436C156.554 696.436 145.275 680.644 145.275 685.156C145.275 689.668 123.468 740.05 141.515 740.05C159.562 740.05 207.688 737.042 216.712 740.05C225.735 743.058 255.814 737.042 252.806 718.995C249.799 700.947 213.704 702.451 213.704 702.451C213.704 702.451 191.95 672.129 186.283 682.778L180.617 693.428L156.554 696.436Z" fill="#2F2E41"/>
<path id="Vector_6" d="M318.98 667.861L300.933 697.94L328.003 709.971L353.57 702.451L338.531 664.853L318.98 667.861Z" fill="#A0616A"/>
<path id="Vector_7" d="M315.972 696.436C315.972 696.436 304.692 682.148 304.692 686.66C304.692 691.172 282.885 740.05 300.932 740.05C318.98 740.05 367.106 737.042 376.13 740.05C385.153 743.058 415.232 737.042 412.224 718.995C409.216 700.947 373.122 702.451 373.122 702.451C373.122 702.451 351.367 672.129 345.701 682.778L340.035 693.428L315.972 696.436Z" fill="#2F2E41"/>
<path id="Vector_8" d="M186.633 338.498C186.633 338.498 191.145 379.104 215.208 416.703C239.271 454.301 273.862 520.475 273.862 520.475C273.862 520.475 270.854 586.648 287.397 624.247C303.94 661.845 306.948 681.396 306.948 681.396L347.555 670.869C347.555 670.869 324.996 544.538 334.019 515.963C343.043 487.388 299.429 338.498 299.429 338.498L258.822 303.907L206.184 297.891L186.633 338.498Z" fill="#2F2E41"/>
<path id="Vector_9" d="M273.311 91.1873C292.415 91.1873 307.901 75.7005 307.901 56.5967C307.901 37.4928 292.415 22.006 273.311 22.006C254.207 22.006 238.72 37.4928 238.72 56.5967C238.72 75.7005 254.207 91.1873 273.311 91.1873Z" fill="#A0616A"/>
<path id="Vector_10" d="M245.048 58.3367L226.945 97.0646L277.77 132.269C277.77 132.269 271.787 90.3424 283.058 79.725C294.328 69.1076 245.048 58.3367 245.048 58.3367Z" fill="#A0616A"/>
<path id="Vector_11" d="M284.389 135.466C284.389 135.466 260.326 85.8359 240.775 85.8359C221.224 85.8359 170.09 120.427 171.594 127.946C173.098 135.466 173.098 136.97 173.098 141.482C173.098 145.994 162.57 145.994 171.594 149.001C180.617 152.009 182.121 155.017 182.121 155.017L174.602 347.522C174.602 347.522 207.688 359.553 219.72 355.041C231.751 350.529 243.783 320.451 243.783 320.451C243.783 320.451 240.775 361.057 252.806 359.553C264.838 358.049 309.956 355.041 311.46 349.025C312.964 343.01 302.436 210.663 302.436 210.663L284.389 135.466Z" fill="#575A89"/>
<path id="Vector_12" d="M174.601 358.049C174.601 358.049 156.554 424.222 182.121 418.207C207.688 412.191 200.168 359.553 200.168 359.553L174.601 358.049Z" fill="#A0616A"/>
<path id="Vector_13" d="M206.184 123.434L162.57 234.726C162.57 234.726 156.554 246.757 162.57 255.781C168.586 264.805 159.562 318.947 165.578 330.978C171.594 343.01 171.594 364.065 171.594 364.065L206.184 367.073L213.704 234.726L252.806 150.505C252.806 150.505 249.799 115.915 206.184 123.434Z" fill="#575A89"/>
<path id="Vector_14" opacity="0.1" d="M217.464 119.675C217.464 119.675 190.393 127.194 181.369 154.265L217.464 119.675Z" fill="black"/>
<path id="Vector_15" d="M250.642 72.3778C254.008 72.177 257.294 73.3143 260.636 73.758C272.593 75.3455 285.032 66.669 287.672 54.8996C287.883 53.3323 288.351 51.8103 289.055 50.3941C290.895 47.3896 295.086 46.8168 298.541 47.5077C301.996 48.1985 305.27 49.8155 308.789 50.0001C314.221 50.2851 319.437 46.9407 322.332 42.3351C325.227 37.7295 326.047 32.0623 325.656 26.6363L323.052 29.3697C321.994 27.1309 321.585 24.64 321.873 22.1804C320.493 21.8129 319.041 21.8058 317.658 22.1598C316.274 22.5139 315.005 23.2172 313.971 24.2024C311.674 24.4468 313.407 19.943 311.701 18.3865C310.987 17.7348 309.892 17.8577 308.925 17.8671C304.039 17.9142 300.087 14.1775 296.238 11.1695C289.567 5.9693 281.767 2.41136 273.468 0.783302C267.951 -0.292698 262.085 -0.465567 256.854 1.58862C252.557 3.27562 248.961 6.3482 245.634 9.54749C237.443 17.4233 230.19 26.6771 226.783 37.517C224.013 46.3957 223.934 55.896 226.557 64.8193C227.93 69.4534 232.068 85.324 238.126 85.6936C245.738 86.158 241.168 72.9431 250.642 72.3778Z" fill="#2F2E41"/>
<path id="Vector_16" opacity="0.1" d="M253.1 183.008L217.679 234.958L206.351 355.629L253.1 183.008Z" fill="black"/>
</g>
</g>
<defs>
<clipPath id="clip0">
<rect width="932" height="741.477" fill="white"/>
</clipPath>
</defs>
</svg>
