<svg width="301" height="434" viewBox="0 0 301 434" fill="none" xmlns="http://www.w3.org/2000/svg">
<g id="undraw_Login_v483 1">
<g clip-path="url(#clip0)">
<path id="Vector" d="M169.674 82.3076C182.094 82.3076 192.162 72.0336 192.162 59.36C192.162 46.6864 182.094 36.4124 169.674 36.4124C157.255 36.4124 147.187 46.6864 147.187 59.36C147.187 72.0336 157.255 82.3076 169.674 82.3076Z" fill="#2F2E41"/>
<path id="Vector_2" d="M104.204 202.317L98.5114 211C98.5114 211 71.1849 217.202 81.4323 226.505C91.6798 235.809 106.482 217.823 106.482 217.823L114.452 206.659L104.204 202.317Z" fill="#FFB8B8"/>
<path id="Vector_3" d="M133.808 103.705C133.808 103.705 126.407 103.705 124.699 114.868C122.991 126.032 121.283 163.244 121.283 163.244C121.283 163.244 97.3728 197.356 101.358 201.697C105.343 206.039 109.897 214.101 112.744 212.861C115.59 211.621 140.07 175.028 140.07 175.028L133.808 103.705Z" fill="#6C63FF"/>
<path id="Vector_4" opacity="0.1" d="M133.808 103.705C133.808 103.705 126.407 103.705 124.699 114.868C122.991 126.032 121.283 163.244 121.283 163.244C121.283 163.244 97.3728 197.356 101.358 201.697C105.343 206.039 109.897 214.101 112.744 212.861C115.59 211.621 140.07 175.028 140.07 175.028L133.808 103.705Z" fill="black"/>
<path id="Vector_5" d="M156.58 72.0742C156.58 72.0742 156.011 96.2623 149.179 97.5027C142.348 98.7431 144.625 106.806 144.625 106.806C144.625 106.806 166.828 121.071 181.63 106.806L184.476 99.3633C184.476 99.3633 174.229 91.3006 178.783 80.1369L156.58 72.0742Z" fill="#FFB8B8"/>
<path id="Vector_6" d="M118.437 220.924C118.437 220.924 84.8481 289.146 97.3728 310.233C109.897 331.32 128.684 374.735 131.531 374.735C134.377 374.735 150.318 366.052 149.179 360.47C148.041 354.888 130.962 313.334 126.407 309.613C121.853 305.892 124.13 295.968 124.699 295.348C125.269 294.728 144.056 261.857 144.056 261.857C144.056 261.857 143.486 313.954 145.764 322.017C148.041 330.08 145.194 387.759 148.041 390.24C150.887 392.721 163.981 397.062 166.258 393.341C168.536 389.62 175.367 333.181 170.813 320.157L179.352 230.847L118.437 220.924Z" fill="#2F2E41"/>
<path id="Vector_7" d="M149.179 386.519L134.947 415.048C134.947 415.048 114.452 431.173 128.684 433.654C142.917 436.135 151.457 429.933 151.457 429.933L163.981 420.01V391.48L149.179 386.519Z" fill="#2F2E41"/>
<path id="Vector_8" d="M129.823 370.393L137.224 389.62C137.224 389.62 140.07 397.682 137.224 399.543C134.377 401.403 126.407 412.567 131.531 413.808C132.562 414.028 133.609 414.141 134.659 414.146C138.926 414.225 143.163 413.362 147.115 411.609C151.068 409.857 154.654 407.252 157.658 403.951L162.273 398.923C162.273 398.923 146.464 359.262 146.683 359.556C146.902 359.85 129.823 370.393 129.823 370.393Z" fill="#2F2E41"/>
<path id="Vector_9" d="M170.813 86.9592C181.503 86.9592 190.169 77.5182 190.169 65.8722C190.169 54.2262 181.503 44.7852 170.813 44.7852C160.123 44.7852 151.457 54.2262 151.457 65.8722C151.457 77.5182 160.123 86.9592 170.813 86.9592Z" fill="#FFB8B8"/>
<path id="Vector_10" d="M181.914 95.332L175.937 101.844C175.937 101.844 157.719 109.287 149.179 101.844C149.179 101.844 152.31 94.7118 152.31 95.332C152.31 95.9522 127.546 99.9835 125.269 111.147C122.991 122.311 126.976 141.537 126.976 141.537C126.976 141.537 111.036 223.404 117.298 225.265C123.561 227.126 182.199 242.631 181.63 230.847C181.06 219.063 186.184 170.687 186.184 170.687L206.11 129.133C206.11 129.133 203.263 115.489 196.431 111.147C189.6 106.806 181.914 95.332 181.914 95.332Z" fill="#6C63FF"/>
<path id="Vector_11" d="M156.58 216.582L149.179 221.544C149.179 221.544 120.714 242.631 135.516 246.352C150.318 250.073 158.857 231.467 158.857 231.467L164.55 224.025L156.58 216.582Z" fill="#FFB8B8"/>
<path id="Vector_12" opacity="0.1" d="M198.709 125.412L203.832 130.994C203.832 130.994 207.248 183.091 200.417 193.635C193.585 204.178 162.273 232.708 160.565 230.847C158.857 228.986 148.041 219.683 150.318 218.443C152.595 217.202 182.872 182.738 182.872 182.738L180.491 134.715L198.709 125.412Z" fill="black"/>
<path id="Vector_13" d="M200.986 123.551L206.11 129.133C206.11 129.133 209.525 181.23 202.694 191.774C195.862 202.317 164.55 230.847 162.843 228.986C161.135 227.126 150.318 217.823 152.595 216.582C154.872 215.342 185.149 180.877 185.149 180.877L182.768 132.854L200.986 123.551Z" fill="#6C63FF"/>
<path id="Vector_14" d="M162.807 35.9195C162.807 35.9195 156.228 33.3129 147.255 38.8518L152.041 40.1551C152.041 40.1551 144.863 40.8067 143.966 51.233H147.255C147.255 51.233 145.162 60.3559 147.255 62.9625L148.601 60.193L152.489 68.6643L153.387 64.4287L155.181 65.0803L156.377 58.2381C156.377 58.2381 159.368 63.1254 161.761 63.4512V59.2156C161.761 59.2156 168.34 67.361 170.434 67.0352L167.443 62.4738L171.63 63.4512L169.836 60.193L180.603 63.4512L178.21 60.193L185.687 62.7996L189.276 64.4286C189.276 64.4286 194.36 51.7217 187.182 42.9246C180.004 34.1274 169.537 32.1725 162.807 35.9195Z" fill="#2F2E41"/>
</g>
</g>
<defs>
<clipPath id="clip0">
<rect width="301" height="434" fill="white"/>
</clipPath>
</defs>
</svg>
