<svg width="1920" height="1080" viewBox="0 0 1920 1080" fill="none" xmlns="http://www.w3.org/2000/svg">
<g id="Thai2 1">
<g clip-path="url(#clip0)">
<g id="Group">
<path id="Vector" d="M361.437 250.788C413.242 250.788 455.239 222.117 455.239 186.75C455.239 151.383 413.242 122.712 361.437 122.712C309.631 122.712 267.634 151.383 267.634 186.75C267.634 222.117 309.631 250.788 361.437 250.788Z" fill="#F5F6CE"/>
<path id="Vector_2" d="M371.577 246.519C371.577 246.519 375.465 186.519 301.098 193.615C226.732 200.712 246.253 234.519 246.253 234.519C243.803 230.308 226.479 225.692 220.986 224.192C195.803 217.442 169.521 232.904 165.972 249.577L103.014 254.423C98.1971 254.769 98.5351 259.673 103.437 259.673H420.422C420.507 259.731 412.648 240.635 371.577 246.519Z" fill="#F9E2BA"/>
<path id="Vector_3" d="M724.225 470.942C724.225 470.942 726.338 438.462 686.028 442.269C645.718 446.077 656.282 464.423 656.282 464.481C654.929 462.173 645.549 459.692 642.591 458.885C628.901 455.192 614.704 463.615 612.76 472.615L578.62 475.269C576 475.5 576.169 478.154 578.873 478.154H750.676C750.76 478.096 746.535 467.769 724.225 470.942Z" fill="#F9E2BA"/>
<path id="Vector_4" d="M422.62 176.654C422.62 176.654 419.662 130.846 476.451 136.269C533.239 141.692 518.282 167.538 518.282 167.538C520.141 164.308 533.324 160.788 537.549 159.692C556.817 154.5 576.845 166.327 579.549 179.077L627.634 182.769C631.352 183.058 631.014 186.808 627.296 186.808H385.268C385.268 186.75 391.268 172.154 422.62 176.654Z" fill="#F9E2BA"/>
<path id="Vector_5" d="M1475.58 327.231C1475.58 327.231 1473.21 291.346 1517.75 295.615C1562.2 299.827 1550.54 320.077 1550.54 320.077C1551.97 317.538 1562.37 314.769 1565.66 313.904C1580.7 309.865 1596.42 319.096 1598.54 329.077L1636.14 331.962C1639.01 332.192 1638.76 335.135 1635.89 335.135H1446.34C1446.34 335.135 1450.99 323.712 1475.58 327.231Z" fill="#F9E2BA"/>
<path id="Vector_6" d="M1005.13 114.808C1005.13 114.808 1002.76 78.9231 1047.3 83.1923C1091.75 87.4038 1080.08 107.654 1080.08 107.654C1081.52 105.115 1091.92 102.346 1095.21 101.481C1110.25 97.4423 1125.97 106.673 1128.08 116.654L1165.69 119.538C1168.56 119.769 1168.31 122.712 1165.44 122.712H975.887C975.803 122.712 980.535 111.288 1005.13 114.808Z" fill="#F9E2BA"/>
</g>
</g>
</g>
<defs>
<clipPath id="clip0">
<rect width="1920" height="1080" fill="white"/>
</clipPath>
</defs>
</svg>
