<svg width="911" height="802" viewBox="0 0 911 802" fill="none" xmlns="http://www.w3.org/2000/svg">
<g id="undraw_fingerprint_swrc 1">
<g clip-path="url(#clip0)">
<path id="Vector" d="M681.378 350.165C681.378 350.165 711.624 349.724 705.18 358.819C698.736 367.914 673.736 367.279 673.736 367.279L681.378 350.165Z" fill="#FFB9B9"/>
<path id="Vector_2" d="M588.341 238.011L618.95 279.569L645.414 311.186C645.414 311.186 672.835 339.789 675.893 343.745C678.951 347.7 687.935 346.569 686.023 352.598C684.111 358.626 681.257 368.669 678.272 369.713C675.287 370.756 661.259 368.961 660.23 366.976C659.201 364.99 593.653 327.943 570.262 301.281L548 286.171L547.666 260.607L588.341 238.011Z" fill="#6C63FF"/>
<path id="Vector_3" d="M588.341 238.011L618.95 279.569L645.414 311.186C645.414 311.186 672.835 339.789 675.893 343.745C678.951 347.7 687.935 346.569 686.023 352.598C684.111 358.626 681.257 368.669 678.272 369.713C675.287 370.756 661.259 368.961 660.23 366.976C659.201 364.99 593.653 327.943 570.262 301.281L548 286.171L547.666 260.607L588.341 238.011Z" fill="#FF6584"/>
<path id="Vector_4" opacity="0.1" d="M588.341 238.011L618.95 279.569L645.414 311.186C645.414 311.186 672.835 339.789 675.893 343.745C678.951 347.7 687.935 346.569 686.023 352.598C684.111 358.626 681.257 368.669 678.272 369.713C675.287 370.756 661.259 368.961 660.23 366.976C659.201 364.99 593.653 327.943 570.262 301.281L548 286.171L547.666 260.607L588.341 238.011Z" fill="black"/>
<path id="Vector_5" d="M601 218.723L607.364 233.723H613L605 195.723C605 171.332 593.228 150.723 568.837 150.723H568.836C560.658 150.723 552.815 153.972 547.032 159.755C541.249 165.538 538 173.381 538 181.559V218.827C538 222.778 539.569 226.566 542.363 229.36C545.156 232.153 548.945 233.723 552.895 233.723H596.625L601 218.723Z" fill="#2F2E41"/>
<path id="Vector_6" d="M497.5 602.223C497.5 602.223 488.5 614.223 488.5 617.223C488.5 620.223 483.5 621.223 480.5 624.223C477.5 627.223 474.5 626.223 476.5 629.223C478.5 632.223 451.5 650.223 451.5 650.223L425.5 684.223L432.5 690.223L452.5 669.223L449.5 706.223L477.5 732.223C477.5 732.223 489.5 734.223 490.5 732.223C491.5 730.223 480.5 710.223 480.5 710.223C480.5 710.223 481.5 692.223 487.5 685.223C491.222 680.846 494.567 676.163 497.5 671.223C497.5 671.223 494.5 667.223 501.5 666.223C508.5 665.223 503.5 659.223 503.5 659.223C503.5 659.223 505.5 658.223 511.5 658.223C517.5 658.223 544.5 629.223 544.5 629.223L497.5 602.223Z" fill="#2F2E41"/>
<path id="Vector_7" d="M609.5 633.223C609.5 633.223 605.5 647.223 612.5 655.223C619.5 663.223 612.5 661.223 612.5 661.223C612.5 661.223 613.5 667.223 609.5 670.223C605.5 673.223 605.5 679.223 605.5 679.223C605.5 679.223 600.5 689.223 601.5 695.223C602.5 701.223 602.5 731.223 602.5 731.223H612.5V705.223L632.5 731.223H682.5C682.5 731.223 681.5 726.223 676.5 725.223C671.5 724.223 656.5 725.223 653.5 704.223C653.5 704.223 652.5 692.223 650.5 690.223C648.5 688.223 646.5 681.223 648.5 676.223C650.5 671.223 648.5 669.223 651.5 667.223C654.5 665.223 655.5 659.223 653.5 656.223C651.5 653.223 645.5 648.223 652.5 645.223C659.5 642.223 659.5 627.223 659.5 627.223L609.5 633.223Z" fill="#2F2E41"/>
<path id="Vector_8" d="M543.5 393.223C543.5 393.223 532.5 402.223 546.5 439.223C560.5 476.223 566.5 524.223 566.5 524.223C566.5 524.223 552.5 536.223 552.5 542.223C552.5 548.223 490.5 586.223 494.5 603.223C498.5 620.223 571.5 652.223 578.5 650.223C585.5 648.223 619.5 552.223 619.5 552.223C619.5 552.223 606.5 446.223 605.5 445.223C604.5 444.223 574.5 395.223 574.5 395.223L556.5 358.223L543.5 393.223Z" fill="#2F2E41"/>
<path id="Vector_9" opacity="0.1" d="M543.5 393.223C543.5 393.223 532.5 402.223 546.5 439.223C560.5 476.223 566.5 524.223 566.5 524.223C566.5 524.223 552.5 536.223 552.5 542.223C552.5 548.223 490.5 586.223 494.5 603.223C498.5 620.223 571.5 652.223 578.5 650.223C585.5 648.223 619.5 552.223 619.5 552.223C619.5 552.223 606.5 446.223 605.5 445.223C604.5 444.223 574.5 395.223 574.5 395.223L556.5 358.223L543.5 393.223Z" fill="black"/>
<path id="Vector_10" d="M542.5 370.223C542.5 370.223 534.5 399.223 553.5 429.223C572.5 459.223 594.5 521.223 594.5 521.223C594.5 521.223 615.5 586.223 606.5 633.223C606.5 633.223 603.5 639.223 611.5 639.223C619.5 639.223 703.5 637.223 696.5 616.223C689.5 595.223 658.5 497.223 658.5 497.223L618.5 398.223L616.5 368.223L601.5 345.223H570.5L542.5 370.223Z" fill="#2F2E41"/>
<path id="Vector_11" d="M402.609 400.223C402.609 400.223 372.36 400.223 378.935 409.223C385.511 418.223 410.5 417.223 410.5 417.223L402.609 400.223Z" fill="#FFB9B9"/>
<path id="Vector_12" d="M561 193.723C561 193.723 563 207.723 556 209.723C549 211.723 584 226.723 584 226.723C584 226.723 591 202.723 594 199.723C597 196.723 561 193.723 561 193.723Z" fill="#FFB9B9"/>
<path id="Vector_13" opacity="0.1" d="M561 193.723C561 193.723 563 207.723 556 209.723C549 211.723 584 226.723 584 226.723C584 226.723 591 202.723 594 199.723C597 196.723 561 193.723 561 193.723Z" fill="black"/>
<path id="Vector_14" d="M589 216.723C589 216.723 558 207.723 557 204.723C556 201.723 549 208.723 546 213.723C543 218.723 537 224.723 534 224.723C531 224.723 509 237.723 504 260.723C501.711 271.252 498.374 277.38 495.429 280.93C493.215 283.829 491.869 287.297 491.546 290.931C491.532 291.099 491.473 291.26 491.378 291.399C491.282 291.538 491.152 291.649 491 291.723C489 292.723 533 334.723 533 334.723C533 334.723 550 330.723 553 334.723C556 338.723 551 345.723 548 349.723C545 353.723 538 373.723 542 376.723C546 379.723 567 349.723 579 355.723C591 361.723 603 356.723 603 356.723C603 356.723 608 372.723 616 372.723C624 372.723 626 359.723 623 355.723C620 351.723 608 343.723 614 332.723C620 321.723 622 301.723 622 301.723C622 301.723 638 282.723 609 259.723C609 259.723 599 231.723 596 229.723C593 227.723 588 226.723 588 224.723C588 222.723 589 216.723 589 216.723Z" fill="#FF6584"/>
<path id="Vector_15" d="M494 286.723L464 328.723L438 360.723C438 360.723 411 389.723 408 393.723C405 397.723 396 396.723 398 402.723C400 408.723 403 418.723 406 419.723C409 420.723 423 418.723 424 416.723C425 414.723 490 376.723 513 349.723L535.039 334.29L535 308.723L494 286.723Z" fill="#FF6584"/>
<path id="Vector_16" d="M554.592 335.8L612.558 337.65C613.212 337.669 613.833 337.943 614.289 338.413C614.745 338.882 615 339.511 615 340.166V341.091C615 341.431 614.931 341.767 614.797 342.08C614.664 342.392 614.468 342.675 614.222 342.91C613.977 343.145 613.686 343.327 613.368 343.447C613.049 343.566 612.71 343.62 612.37 343.605L554.404 340.83C553.757 340.801 553.146 340.524 552.698 340.055C552.25 339.587 552 338.964 552 338.316C552 337.979 552.068 337.646 552.199 337.335C552.33 337.025 552.522 336.744 552.764 336.51C553.006 336.275 553.292 336.092 553.606 335.97C553.92 335.848 554.255 335.79 554.592 335.8Z" fill="#2F2E41"/>
<path id="Vector_17" d="M614 346.723C614.552 346.723 615 344.26 615 341.223C615 338.185 614.552 335.723 614 335.723C613.448 335.723 613 338.185 613 341.223C613 344.26 613.448 346.723 614 346.723Z" fill="#2F2E41"/>
<path id="Vector_18" d="M581 209.723C596.464 209.723 609 197.187 609 181.723C609 166.259 596.464 153.723 581 153.723C565.536 153.723 553 166.259 553 181.723C553 197.187 565.536 209.723 581 209.723Z" fill="#FFB9B9"/>
<path id="Vector_19" d="M592.703 152.06C587.278 150.685 574.414 150.723 572.531 150.723C567.997 150.723 563.506 151.616 559.317 153.351C555.127 155.087 551.321 157.63 548.114 160.837C544.907 164.043 542.364 167.85 540.629 172.04C538.893 176.229 538 180.72 538 185.254L525 233.723H550.304L555 215.723L561.667 233.723H574.405L575.5 222.906L579.811 233.723H594C583.374 209.679 577.721 187.762 591.682 174.235C601.109 175.519 609.061 172.994 610.356 167.883C611.849 161.994 603.945 154.91 592.703 152.06Z" fill="#2F2E41"/>
</g>
</g>
<defs>
<clipPath id="clip0">
<rect width="910.225" height="801.723" fill="white"/>
</clipPath>
</defs>
</svg>
